<svg xmlns="http://www.w3.org/2000/svg" id="graph-svg" class="w-full h-full border border-slate-200 rounded-lg bg-white" width="576" height="742"><style xmlns="http://www.w3.org/1999/xhtml">

</style><g transform="translate(120.34041363760267,214.0804542472208) scale(0.4916382000220984)"><g><line stroke="#8b5cf6" stroke-opacity="0.6" stroke-width="1" x1="281.6991207112753" y1="-86.25016632034242" x2="322.14478841915263" y2="1.7357131670981623"/><line stroke="#8b5cf6" stroke-opacity="0.6" stroke-width="1" x1="281.6991207112753" y1="-86.25016632034242" x2="615.2745833320989" y2="156.51589075079494"/><line stroke="#8b5cf6" stroke-opacity="0.6" stroke-width="1" x1="281.6991207112753" y1="-86.25016632034242" x2="325.30224166850877" y2="170.44540573265428"/><line stroke="#8b5cf6" stroke-opacity="0.6" stroke-width="1" x1="281.6991207112753" y1="-86.25016632034242" x2="136.87550127640267" y2="-12.60553110496937"/><line stroke="#8b5cf6" stroke-opacity="0.6" stroke-width="1" x1="281.6991207112753" y1="-86.25016632034242" x2="226.0772742826261" y2="252.1558725896941"/><line stroke="#8b5cf6" stroke-opacity="0.6" stroke-width="1" x1="322.14478841915263" y1="1.7357131670981623" x2="414.1915078191025" y2="572.863137367123"/><line stroke="#8b5cf6" stroke-opacity="0.6" stroke-width="1" x1="322.14478841915263" y1="1.7357131670981623" x2="209.13670744827195" y2="423.4676941965119"/><line stroke="#8b5cf6" stroke-opacity="0.6" stroke-width="1" x1="322.14478841915263" y1="1.7357131670981623" x2="13.262115939680005" y2="124.83754204321981"/><line stroke="#8b5cf6" stroke-opacity="0.6" stroke-width="1" x1="322.14478841915263" y1="1.7357131670981623" x2="275.05582911247524" y2="90.46276166979698"/><line stroke="#8b5cf6" stroke-opacity="0.6" stroke-width="1" x1="322.14478841915263" y1="1.7357131670981623" x2="211.49430707786794" y2="166.6635292963346"/><line stroke="#8b5cf6" stroke-opacity="0.6" stroke-width="1" x1="322.14478841915263" y1="1.7357131670981623" x2="325.30224166850877" y2="170.44540573265428"/><line stroke="#8b5cf6" stroke-opacity="0.6" stroke-width="1" x1="322.14478841915263" y1="1.7357131670981623" x2="297.3420190389283" y2="417.3789426733637"/><line stroke="#8b5cf6" stroke-opacity="0.6" stroke-width="1" x1="322.14478841915263" y1="1.7357131670981623" x2="521.6819679652464" y2="159.45073204752197"/><line stroke="#8b5cf6" stroke-opacity="0.6" stroke-width="1" x1="322.14478841915263" y1="1.7357131670981623" x2="366.7693280622017" y2="85.2293047598514"/><line stroke="#8b5cf6" stroke-opacity="0.6" stroke-width="1" x1="322.14478841915263" y1="1.7357131670981623" x2="16.840874145180397" y2="369.9981868815278"/><line stroke="#8b5cf6" stroke-opacity="0.6" stroke-width="1" x1="549.4465060569994" y1="499.57915423898305" x2="661.3356401010398" y2="238.71468184569127"/><line stroke="#8b5cf6" stroke-opacity="0.6" stroke-width="1" x1="549.4465060569994" y1="499.57915423898305" x2="564.7025676044782" y2="79.81880603062561"/><line stroke="#8b5cf6" stroke-opacity="0.6" stroke-width="1" x1="549.4465060569994" y1="499.57915423898305" x2="480.98526813971785" y2="243.02447888321507"/><line stroke="#8b5cf6" stroke-opacity="0.6" stroke-width="1" x1="549.4465060569994" y1="499.57915423898305" x2="572.4602378176232" y2="236.22461986244554"/><line stroke="#8b5cf6" stroke-opacity="0.6" stroke-width="1" x1="549.4465060569994" y1="499.57915423898305" x2="620.3391664283452" y2="322.7324167659412"/><line stroke="#8b5cf6" stroke-opacity="0.6" stroke-width="1" x1="549.4465060569994" y1="499.57915423898305" x2="615.2745833320989" y2="156.51589075079494"/><line stroke="#8b5cf6" stroke-opacity="0.6" stroke-width="1" x1="549.4465060569994" y1="499.57915423898305" x2="531.3368020448995" y2="669.1189609088357"/><line stroke="#8b5cf6" stroke-opacity="0.6" stroke-width="1" x1="549.4465060569994" y1="499.57915423898305" x2="496.22762647946104" y2="580.0031008242283"/><line stroke="#8b5cf6" stroke-opacity="0.6" stroke-width="1" x1="549.4465060569994" y1="499.57915423898305" x2="468.32318658773323" y2="743.6413213663184"/><line stroke="#8b5cf6" stroke-opacity="0.6" stroke-width="1" x1="549.4465060569994" y1="499.57915423898305" x2="391.9011623237567" y2="414.7648849874643"/><line stroke="#8b5cf6" stroke-opacity="0.6" stroke-width="1" x1="549.4465060569994" y1="499.57915423898305" x2="574.4989423496237" y2="416.1628895826286"/><line stroke="#8b5cf6" stroke-opacity="0.6" stroke-width="1" x1="549.4465060569994" y1="499.57915423898305" x2="521.6819679652464" y2="159.45073204752197"/><line stroke="#8b5cf6" stroke-opacity="0.6" stroke-width="1" x1="549.4465060569994" y1="499.57915423898305" x2="482.9087414378263" y2="409.79271160838493"/><line stroke="#8b5cf6" stroke-opacity="0.6" stroke-width="1" x1="549.4465060569994" y1="499.57915423898305" x2="641.7741788653445" y2="506.1931170668149"/><line stroke="#8b5cf6" stroke-opacity="0.6" stroke-width="1" x1="169.65298201722868" y1="317.7392585382472" x2="226.0772742826261" y2="252.1558725896941"/><line stroke="#8b5cf6" stroke-opacity="0.6" stroke-width="2" x1="169.65298201722868" y1="317.7392585382472" x2="325.30224166850877" y2="170.44540573265428"/><line stroke="#8b5cf6" stroke-opacity="0.6" stroke-width="2.5" x1="169.65298201722868" y1="317.7392585382472" x2="16.840874145180397" y2="369.9981868815278"/><line stroke="#8b5cf6" stroke-opacity="0.6" stroke-width="1" x1="169.65298201722868" y1="317.7392585382472" x2="393.67559378232164" y2="243.86383201073613"/><line stroke="#8b5cf6" stroke-opacity="0.6" stroke-width="1" x1="169.65298201722868" y1="317.7392585382472" x2="144.89012584672082" y2="231.14213628088922"/><line stroke="#8b5cf6" stroke-opacity="0.6" stroke-width="8" x1="169.65298201722868" y1="317.7392585382472" x2="271.7632759762493" y2="497.3970991646126"/><line stroke="#8b5cf6" stroke-opacity="0.6" stroke-width="1.5" x1="169.65298201722868" y1="317.7392585382472" x2="211.49430707786794" y2="166.6635292963346"/><line stroke="#8b5cf6" stroke-opacity="0.6" stroke-width="1" x1="169.65298201722868" y1="317.7392585382472" x2="43.48285853935794" y2="454.39683892589636"/><line stroke="#8b5cf6" stroke-opacity="0.6" stroke-width="1" x1="169.65298201722868" y1="317.7392585382472" x2="247.83154565230777" y2="345.14041338685416"/><line stroke="#8b5cf6" stroke-opacity="0.6" stroke-width="2.5" x1="169.65298201722868" y1="317.7392585382472" x2="209.13670744827195" y2="423.4676941965119"/><line stroke="#8b5cf6" stroke-opacity="0.6" stroke-width="1.5" x1="169.65298201722868" y1="317.7392585382472" x2="137.56121210799435" y2="454.6024146741712"/><line stroke="#8b5cf6" stroke-opacity="0.6" stroke-width="1" x1="169.65298201722868" y1="317.7392585382472" x2="391.9011623237567" y2="414.7648849874643"/><line stroke="#8b5cf6" stroke-opacity="0.6" stroke-width="1" x1="169.65298201722868" y1="317.7392585382472" x2="113.84809178720329" y2="692.0063803638726"/><line stroke="#8b5cf6" stroke-opacity="0.6" stroke-width="1.5" x1="169.65298201722868" y1="317.7392585382472" x2="191.80940954477808" y2="519.9365742331548"/><line stroke="#8b5cf6" stroke-opacity="0.6" stroke-width="1" x1="169.65298201722868" y1="317.7392585382472" x2="-47.61312711346857" y2="623.8751592840869"/><line stroke="#8b5cf6" stroke-opacity="0.6" stroke-width="1" x1="169.65298201722868" y1="317.7392585382472" x2="-94.46674852448777" y2="534.3588843225044"/><line stroke="#8b5cf6" stroke-opacity="0.6" stroke-width="1" x1="169.65298201722868" y1="317.7392585382472" x2="-50.41130834000847" y2="194.28236540960626"/><line stroke="#8b5cf6" stroke-opacity="0.6" stroke-width="1" x1="169.65298201722868" y1="317.7392585382472" x2="75.87909032655332" y2="52.4435634746557"/><line stroke="#8b5cf6" stroke-opacity="0.6" stroke-width="1" x1="169.65298201722868" y1="317.7392585382472" x2="334.8736111575076" y2="576.7932673650528"/><line stroke="#8b5cf6" stroke-opacity="0.6" stroke-width="1" x1="169.65298201722868" y1="317.7392585382472" x2="275.05582911247524" y2="90.46276166979698"/><line stroke="#8b5cf6" stroke-opacity="0.6" stroke-width="1" x1="169.65298201722868" y1="317.7392585382472" x2="301.22734420672367" y2="253.97162753695034"/><line stroke="#8b5cf6" stroke-opacity="0.6" stroke-width="1" x1="169.65298201722868" y1="317.7392585382472" x2="422.45543553592245" y2="164.3463069062633"/><line stroke="#8b5cf6" stroke-opacity="0.6" stroke-width="7" x1="169.65298201722868" y1="317.7392585382472" x2="-20.90593836005079" y2="33.357443039175315"/><line stroke="#8b5cf6" stroke-opacity="0.6" stroke-width="2" x1="226.0772742826261" y1="252.1558725896941" x2="52.07470987195328" y2="622.0753594912547"/><line stroke="#8b5cf6" stroke-opacity="0.6" stroke-width="1" x1="226.0772742826261" y1="252.1558725896941" x2="209.13670744827195" y2="423.4676941965119"/><line stroke="#8b5cf6" stroke-opacity="0.6" stroke-width="8" x1="226.0772742826261" y1="252.1558725896941" x2="211.49430707786794" y2="166.6635292963346"/><line stroke="#8b5cf6" stroke-opacity="0.6" stroke-width="1" x1="226.0772742826261" y1="252.1558725896941" x2="325.30224166850877" y2="170.44540573265428"/><line stroke="#8b5cf6" stroke-opacity="0.6" stroke-width="1" x1="226.0772742826261" y1="252.1558725896941" x2="191.80940954477808" y2="519.9365742331548"/><line stroke="#8b5cf6" stroke-opacity="0.6" stroke-width="1" x1="226.0772742826261" y1="252.1558725896941" x2="0.9783707016151924" y2="535.9252339448961"/><line stroke="#8b5cf6" stroke-opacity="0.6" stroke-width="1" x1="226.0772742826261" y1="252.1558725896941" x2="211.66768600416145" y2="685.9878690818985"/><line stroke="#8b5cf6" stroke-opacity="0.6" stroke-width="1" x1="226.0772742826261" y1="252.1558725896941" x2="113.84809178720329" y2="692.0063803638726"/><line stroke="#8b5cf6" stroke-opacity="0.6" stroke-width="2" x1="226.0772742826261" y1="252.1558725896941" x2="271.7632759762493" y2="497.3970991646126"/><line stroke="#8b5cf6" stroke-opacity="0.6" stroke-width="1" x1="226.0772742826261" y1="252.1558725896941" x2="136.87550127640267" y2="-12.60553110496937"/><line stroke="#8b5cf6" stroke-opacity="0.6" stroke-width="1" x1="226.0772742826261" y1="252.1558725896941" x2="45.01264301680899" y2="-39.93157383523682"/><line stroke="#8b5cf6" stroke-opacity="0.6" stroke-width="1" x1="226.0772742826261" y1="252.1558725896941" x2="247.83154565230777" y2="345.14041338685416"/><line stroke="#8b5cf6" stroke-opacity="0.6" stroke-width="1" x1="226.0772742826261" y1="252.1558725896941" x2="16.840874145180397" y2="369.9981868815278"/><line stroke="#8b5cf6" stroke-opacity="0.6" stroke-width="1" x1="226.0772742826261" y1="252.1558725896941" x2="78.04622845525897" y2="298.46874614981596"/><line stroke="#8b5cf6" stroke-opacity="0.6" stroke-width="1" x1="226.0772742826261" y1="252.1558725896941" x2="301.22734420672367" y2="253.97162753695034"/><line stroke="#8b5cf6" stroke-opacity="0.6" stroke-width="1" x1="226.0772742826261" y1="252.1558725896941" x2="144.89012584672082" y2="231.14213628088922"/><line stroke="#8b5cf6" stroke-opacity="0.6" stroke-width="1" x1="226.0772742826261" y1="252.1558725896941" x2="-147.0228665620059" y2="183.11114497857574"/><line stroke="#8b5cf6" stroke-opacity="0.6" stroke-width="1" x1="226.0772742826261" y1="252.1558725896941" x2="-50.41130834000847" y2="194.28236540960626"/><line stroke="#8b5cf6" stroke-opacity="0.6" stroke-width="1" x1="226.0772742826261" y1="252.1558725896941" x2="334.8736111575076" y2="576.7932673650528"/><line stroke="#8b5cf6" stroke-opacity="0.6" stroke-width="1" x1="245.25576307961967" y1="598.2799547735057" x2="410.4814477889517" y2="660.4523213488843"/><line stroke="#8b5cf6" stroke-opacity="0.6" stroke-width="1.5" x1="245.25576307961967" y1="598.2799547735057" x2="109.0921897449996" y2="143.72816214437054"/><line stroke="#8b5cf6" stroke-opacity="0.6" stroke-width="1" x1="245.25576307961967" y1="598.2799547735057" x2="361.2292683334978" y2="494.80547556402416"/><line stroke="#8b5cf6" stroke-opacity="0.6" stroke-width="1" x1="245.25576307961967" y1="598.2799547735057" x2="209.13670744827195" y2="423.4676941965119"/><line stroke="#8b5cf6" stroke-opacity="0.6" stroke-width="1" x1="245.25576307961967" y1="598.2799547735057" x2="297.3420190389283" y2="417.3789426733637"/><line stroke="#8b5cf6" stroke-opacity="0.6" stroke-width="1" x1="245.25576307961967" y1="598.2799547735057" x2="461.13363229665384" y2="499.17511137089184"/><line stroke="#8b5cf6" stroke-opacity="0.6" stroke-width="1" x1="245.25576307961967" y1="598.2799547735057" x2="14.391397661770792" y2="697.2558020195977"/><line stroke="#8b5cf6" stroke-opacity="0.6" stroke-width="1" x1="245.25576307961967" y1="598.2799547735057" x2="137.56121210799435" y2="454.6024146741712"/><line stroke="#8b5cf6" stroke-opacity="0.6" stroke-width="2" x1="245.25576307961967" y1="598.2799547735057" x2="144.89012584672082" y2="231.14213628088922"/><line stroke="#8b5cf6" stroke-opacity="0.6" stroke-width="1" x1="245.25576307961967" y1="598.2799547735057" x2="271.7632759762493" y2="497.3970991646126"/><line stroke="#8b5cf6" stroke-opacity="0.6" stroke-width="2.5" x1="245.25576307961967" y1="598.2799547735057" x2="16.840874145180397" y2="369.9981868815278"/><line stroke="#8b5cf6" stroke-opacity="0.6" stroke-width="1" x1="245.25576307961967" y1="598.2799547735057" x2="-36.95267942519058" y2="452.7921453143664"/><line stroke="#8b5cf6" stroke-opacity="0.6" stroke-width="1" x1="245.25576307961967" y1="598.2799547735057" x2="422.45543553592245" y2="164.3463069062633"/><line stroke="#8b5cf6" stroke-opacity="0.6" stroke-width="1.5" x1="245.25576307961967" y1="598.2799547735057" x2="191.80940954477808" y2="519.9365742331548"/><line stroke="#8b5cf6" stroke-opacity="0.6" stroke-width="1" x1="245.25576307961967" y1="598.2799547735057" x2="310.48426748184113" y2="666.0966985363635"/><line stroke="#8b5cf6" stroke-opacity="0.6" stroke-width="1" x1="78.04622845525897" y1="298.46874614981596" x2="13.262115939680005" y2="124.83754204321981"/><line stroke="#8b5cf6" stroke-opacity="0.6" stroke-width="1" x1="78.04622845525897" y1="298.46874614981596" x2="-15.990675447028785" y2="285.39698927037756"/><line stroke="#8b5cf6" stroke-opacity="0.6" stroke-width="1" x1="78.04622845525897" y1="298.46874614981596" x2="325.30224166850877" y2="170.44540573265428"/><line stroke="#8b5cf6" stroke-opacity="0.6" stroke-width="1" x1="78.04622845525897" y1="298.46874614981596" x2="211.49430707786794" y2="166.6635292963346"/><line stroke="#8b5cf6" stroke-opacity="0.6" stroke-width="1" x1="78.04622845525897" y1="298.46874614981596" x2="271.7632759762493" y2="497.3970991646126"/><line stroke="#8b5cf6" stroke-opacity="0.6" stroke-width="1" x1="78.04622845525897" y1="298.46874614981596" x2="42.548960068862186" y2="209.48307443475468"/><line stroke="#8b5cf6" stroke-opacity="0.6" stroke-width="1" x1="78.04622845525897" y1="298.46874614981596" x2="297.3420190389283" y2="417.3789426733637"/><line stroke="#8b5cf6" stroke-opacity="0.6" stroke-width="1" x1="78.04622845525897" y1="298.46874614981596" x2="171.83250646905293" y2="76.00236157566101"/><line stroke="#8b5cf6" stroke-opacity="0.6" stroke-width="1" x1="13.262115939680005" y1="124.83754204321981" x2="211.49430707786794" y2="166.6635292963346"/><line stroke="#8b5cf6" stroke-opacity="0.6" stroke-width="1" x1="13.262115939680005" y1="124.83754204321981" x2="-15.990675447028785" y2="285.39698927037756"/><line stroke="#8b5cf6" stroke-opacity="0.6" stroke-width="1" x1="13.262115939680005" y1="124.83754204321981" x2="75.87909032655332" y2="52.4435634746557"/><line stroke="#8b5cf6" stroke-opacity="0.6" stroke-width="1" x1="13.262115939680005" y1="124.83754204321981" x2="137.56121210799435" y2="454.6024146741712"/><line stroke="#8b5cf6" stroke-opacity="0.6" stroke-width="1" x1="13.262115939680005" y1="124.83754204321981" x2="325.30224166850877" y2="170.44540573265428"/><line stroke="#8b5cf6" stroke-opacity="0.6" stroke-width="1" x1="13.262115939680005" y1="124.83754204321981" x2="297.3420190389283" y2="417.3789426733637"/><line stroke="#8b5cf6" stroke-opacity="0.6" stroke-width="1" x1="13.262115939680005" y1="124.83754204321981" x2="52.07470987195328" y2="622.0753594912547"/><line stroke="#8b5cf6" stroke-opacity="0.6" stroke-width="2.5" x1="325.30224166850877" y1="170.44540573265428" x2="211.49430707786794" y2="166.6635292963346"/><line stroke="#8b5cf6" stroke-opacity="0.6" stroke-width="1" x1="325.30224166850877" y1="170.44540573265428" x2="297.3420190389283" y2="417.3789426733637"/><line stroke="#8b5cf6" stroke-opacity="0.6" stroke-width="1" x1="325.30224166850877" y1="170.44540573265428" x2="-47.61312711346857" y2="623.8751592840869"/><line stroke="#8b5cf6" stroke-opacity="0.6" stroke-width="1" x1="325.30224166850877" y1="170.44540573265428" x2="345.5056001528684" y2="339.8258217507753"/><line stroke="#8b5cf6" stroke-opacity="0.6" stroke-width="1" x1="325.30224166850877" y1="170.44540573265428" x2="271.7632759762493" y2="497.3970991646126"/><line stroke="#8b5cf6" stroke-opacity="0.6" stroke-width="1" x1="325.30224166850877" y1="170.44540573265428" x2="137.56121210799435" y2="454.6024146741712"/><line stroke="#8b5cf6" stroke-opacity="0.6" stroke-width="1" x1="325.30224166850877" y1="170.44540573265428" x2="43.48285853935794" y2="454.39683892589636"/><line stroke="#8b5cf6" stroke-opacity="0.6" stroke-width="1" x1="325.30224166850877" y1="170.44540573265428" x2="275.05582911247524" y2="90.46276166979698"/><line stroke="#8b5cf6" stroke-opacity="0.6" stroke-width="1" x1="325.30224166850877" y1="170.44540573265428" x2="16.840874145180397" y2="369.9981868815278"/><line stroke="#8b5cf6" stroke-opacity="0.6" stroke-width="1" x1="325.30224166850877" y1="170.44540573265428" x2="106.95151512544898" y2="383.76571908594804"/><line stroke="#8b5cf6" stroke-opacity="0.6" stroke-width="1" x1="325.30224166850877" y1="170.44540573265428" x2="-115.35659297934846" y2="270.3091407799618"/><line stroke="#8b5cf6" stroke-opacity="0.6" stroke-width="1" x1="325.30224166850877" y1="170.44540573265428" x2="410.4814477889517" y2="660.4523213488843"/><line stroke="#8b5cf6" stroke-opacity="0.6" stroke-width="1" x1="325.30224166850877" y1="170.44540573265428" x2="191.80940954477808" y2="519.9365742331548"/><line stroke="#8b5cf6" stroke-opacity="0.6" stroke-width="1" x1="325.30224166850877" y1="170.44540573265428" x2="97.52125651731676" y2="532.780696776063"/><line stroke="#8b5cf6" stroke-opacity="0.6" stroke-width="1" x1="325.30224166850877" y1="170.44540573265428" x2="42.548960068862186" y2="209.48307443475468"/><line stroke="#8b5cf6" stroke-opacity="0.6" stroke-width="1" x1="211.49430707786794" y1="166.6635292963346" x2="-15.990675447028785" y2="285.39698927037756"/><line stroke="#8b5cf6" stroke-opacity="0.6" stroke-width="1" x1="211.49430707786794" y1="166.6635292963346" x2="247.83154565230777" y2="345.14041338685416"/><line stroke="#8b5cf6" stroke-opacity="0.6" stroke-width="2" x1="211.49430707786794" y1="166.6635292963346" x2="209.13670744827195" y2="423.4676941965119"/><line stroke="#8b5cf6" stroke-opacity="0.6" stroke-width="1" x1="211.49430707786794" y1="166.6635292963346" x2="297.3420190389283" y2="417.3789426733637"/><line stroke="#8b5cf6" stroke-opacity="0.6" stroke-width="1" x1="211.49430707786794" y1="166.6635292963346" x2="301.22734420672367" y2="253.97162753695034"/><line stroke="#8b5cf6" stroke-opacity="0.6" stroke-width="1.5" x1="211.49430707786794" y1="166.6635292963346" x2="191.80940954477808" y2="519.9365742331548"/><line stroke="#8b5cf6" stroke-opacity="0.6" stroke-width="1" x1="211.49430707786794" y1="166.6635292963346" x2="0.9783707016151924" y2="535.9252339448961"/><line stroke="#8b5cf6" stroke-opacity="0.6" stroke-width="1" x1="211.49430707786794" y1="166.6635292963346" x2="376.31178976226494" y2="-81.72335862809324"/><line stroke="#8b5cf6" stroke-opacity="0.6" stroke-width="1" x1="211.49430707786794" y1="166.6635292963346" x2="52.07470987195328" y2="622.0753594912547"/><line stroke="#8b5cf6" stroke-opacity="0.6" stroke-width="2" x1="211.49430707786794" y1="166.6635292963346" x2="16.840874145180397" y2="369.9981868815278"/><line stroke="#8b5cf6" stroke-opacity="0.6" stroke-width="1" x1="211.49430707786794" y1="166.6635292963346" x2="144.89012584672082" y2="231.14213628088922"/><line stroke="#8b5cf6" stroke-opacity="0.6" stroke-width="1" x1="211.49430707786794" y1="166.6635292963346" x2="334.8736111575076" y2="576.7932673650528"/><line stroke="#8b5cf6" stroke-opacity="0.6" stroke-width="1" x1="211.49430707786794" y1="166.6635292963346" x2="271.7632759762493" y2="497.3970991646126"/><line stroke="#8b5cf6" stroke-opacity="0.6" stroke-width="1" x1="-15.990675447028785" y1="285.39698927037756" x2="-94.46674852448777" y2="534.3588843225044"/><line stroke="#8b5cf6" stroke-opacity="0.6" stroke-width="1" x1="-15.990675447028785" y1="285.39698927037756" x2="52.07470987195328" y2="622.0753594912547"/><line stroke="#8b5cf6" stroke-opacity="0.6" stroke-width="1" x1="-15.990675447028785" y1="285.39698927037756" x2="-83.34819026832989" y2="107.90426243311073"/><line stroke="#8b5cf6" stroke-opacity="0.6" stroke-width="1" x1="-15.990675447028785" y1="285.39698927037756" x2="-138.40138906481343" y2="446.6707667098834"/><line stroke="#8b5cf6" stroke-opacity="0.6" stroke-width="1" x1="-15.990675447028785" y1="285.39698927037756" x2="-115.35659297934846" y2="270.3091407799618"/><line stroke="#8b5cf6" stroke-opacity="0.6" stroke-width="1" x1="-15.990675447028785" y1="285.39698927037756" x2="271.7632759762493" y2="497.3970991646126"/><line stroke="#8b5cf6" stroke-opacity="0.6" stroke-width="1" x1="-15.990675447028785" y1="285.39698927037756" x2="393.67559378232164" y2="243.86383201073613"/><line stroke="#8b5cf6" stroke-opacity="0.6" stroke-width="1" x1="-15.990675447028785" y1="285.39698927037756" x2="366.7693280622017" y2="85.2293047598514"/><line stroke="#8b5cf6" stroke-opacity="0.6" stroke-width="1" x1="-15.990675447028785" y1="285.39698927037756" x2="16.840874145180397" y2="369.9981868815278"/><line stroke="#8b5cf6" stroke-opacity="0.6" stroke-width="1" x1="-15.990675447028785" y1="285.39698927037756" x2="43.48285853935794" y2="454.39683892589636"/><line stroke="#8b5cf6" stroke-opacity="0.6" stroke-width="1" x1="-15.990675447028785" y1="285.39698927037756" x2="310.48426748184113" y2="666.0966985363635"/><line stroke="#8b5cf6" stroke-opacity="0.6" stroke-width="1" x1="564.7025676044782" y1="79.81880603062561" x2="469.3411385774683" y2="78.70275707049954"/><line stroke="#8b5cf6" stroke-opacity="0.6" stroke-width="2.5" x1="564.7025676044782" y1="79.81880603062561" x2="572.4602378176232" y2="236.22461986244554"/><line stroke="#8b5cf6" stroke-opacity="0.6" stroke-width="1" x1="564.7025676044782" y1="79.81880603062561" x2="461.13363229665384" y2="499.17511137089184"/><line stroke="#8b5cf6" stroke-opacity="0.6" stroke-width="1" x1="564.7025676044782" y1="79.81880603062561" x2="661.3356401010398" y2="238.71468184569127"/><line stroke="#8b5cf6" stroke-opacity="0.6" stroke-width="1" x1="564.7025676044782" y1="79.81880603062561" x2="480.98526813971785" y2="243.02447888321507"/><line stroke="#8b5cf6" stroke-opacity="0.6" stroke-width="1" x1="564.7025676044782" y1="79.81880603062561" x2="620.3391664283452" y2="322.7324167659412"/><line stroke="#8b5cf6" stroke-opacity="0.6" stroke-width="1" x1="564.7025676044782" y1="79.81880603062561" x2="709.814335069606" y2="159.685300430604"/><line stroke="#8b5cf6" stroke-opacity="0.6" stroke-width="1" x1="564.7025676044782" y1="79.81880603062561" x2="422.45543553592245" y2="164.3463069062633"/><line stroke="#8b5cf6" stroke-opacity="0.6" stroke-width="1" x1="564.7025676044782" y1="79.81880603062561" x2="661.0322446793252" y2="74.13123054014841"/><line stroke="#8b5cf6" stroke-opacity="0.6" stroke-width="1" x1="564.7025676044782" y1="79.81880603062561" x2="615.2745833320989" y2="156.51589075079494"/><line stroke="#8b5cf6" stroke-opacity="0.6" stroke-width="1" x1="469.3411385774683" y1="78.70275707049954" x2="572.4602378176232" y2="236.22461986244554"/><line stroke="#8b5cf6" stroke-opacity="0.6" stroke-width="1" x1="469.3411385774683" y1="78.70275707049954" x2="461.13363229665384" y2="499.17511137089184"/><line stroke="#8b5cf6" stroke-opacity="0.6" stroke-width="1" x1="469.3411385774683" y1="78.70275707049954" x2="345.5056001528684" y2="339.8258217507753"/><line stroke="#8b5cf6" stroke-opacity="0.6" stroke-width="1" x1="469.3411385774683" y1="78.70275707049954" x2="535.826042008881" y2="325.0495816015441"/><line stroke="#8b5cf6" stroke-opacity="0.6" stroke-width="1" x1="469.3411385774683" y1="78.70275707049954" x2="422.45543553592245" y2="164.3463069062633"/><line stroke="#8b5cf6" stroke-opacity="0.6" stroke-width="1" x1="469.3411385774683" y1="78.70275707049954" x2="480.98526813971785" y2="243.02447888321507"/><line stroke="#8b5cf6" stroke-opacity="0.6" stroke-width="1" x1="572.4602378176232" y1="236.22461986244554" x2="461.13363229665384" y2="499.17511137089184"/><line stroke="#8b5cf6" stroke-opacity="0.6" stroke-width="1" x1="572.4602378176232" y1="236.22461986244554" x2="422.45543553592245" y2="164.3463069062633"/><line stroke="#8b5cf6" stroke-opacity="0.6" stroke-width="1" x1="572.4602378176232" y1="236.22461986244554" x2="366.7693280622017" y2="85.2293047598514"/><line stroke="#8b5cf6" stroke-opacity="0.6" stroke-width="1" x1="572.4602378176232" y1="236.22461986244554" x2="611.2253221671981" y2="-10.98186535923368"/><line stroke="#8b5cf6" stroke-opacity="0.6" stroke-width="1" x1="572.4602378176232" y1="236.22461986244554" x2="661.3356401010398" y2="238.71468184569127"/><line stroke="#8b5cf6" stroke-opacity="0.6" stroke-width="1" x1="572.4602378176232" y1="236.22461986244554" x2="480.98526813971785" y2="243.02447888321507"/><line stroke="#8b5cf6" stroke-opacity="0.6" stroke-width="1" x1="572.4602378176232" y1="236.22461986244554" x2="620.3391664283452" y2="322.7324167659412"/><line stroke="#8b5cf6" stroke-opacity="0.6" stroke-width="1" x1="572.4602378176232" y1="236.22461986244554" x2="521.6819679652464" y2="159.45073204752197"/><line stroke="#8b5cf6" stroke-opacity="0.6" stroke-width="1" x1="572.4602378176232" y1="236.22461986244554" x2="435.8313615461862" y2="326.0712896262321"/><line stroke="#8b5cf6" stroke-opacity="0.6" stroke-width="1.5" x1="572.4602378176232" y1="236.22461986244554" x2="574.4989423496237" y2="416.1628895826286"/><line stroke="#8b5cf6" stroke-opacity="0.6" stroke-width="1" x1="572.4602378176232" y1="236.22461986244554" x2="535.826042008881" y2="325.0495816015441"/><line stroke="#8b5cf6" stroke-opacity="0.6" stroke-width="1" x1="572.4602378176232" y1="236.22461986244554" x2="757.262524958047" y2="245.5281487828608"/><line stroke="#8b5cf6" stroke-opacity="0.6" stroke-width="1" x1="572.4602378176232" y1="236.22461986244554" x2="376.31178976226494" y2="-81.72335862809324"/><line stroke="#8b5cf6" stroke-opacity="0.6" stroke-width="1" x1="572.4602378176232" y1="236.22461986244554" x2="482.9087414378263" y2="409.79271160838493"/><line stroke="#8b5cf6" stroke-opacity="0.6" stroke-width="1" x1="572.4602378176232" y1="236.22461986244554" x2="641.7741788653445" y2="506.1931170668149"/><line stroke="#8b5cf6" stroke-opacity="0.6" stroke-width="1" x1="461.13363229665384" y1="499.17511137089184" x2="191.80940954477808" y2="519.9365742331548"/><line stroke="#8b5cf6" stroke-opacity="0.6" stroke-width="1" x1="461.13363229665384" y1="499.17511137089184" x2="422.45543553592245" y2="164.3463069062633"/><line stroke="#8b5cf6" stroke-opacity="0.6" stroke-width="1" x1="461.13363229665384" y1="499.17511137089184" x2="435.8313615461862" y2="326.0712896262321"/><line stroke="#8b5cf6" stroke-opacity="0.6" stroke-width="1" x1="574.4989423496237" y1="416.1628895826286" x2="615.2745833320989" y2="156.51589075079494"/><line stroke="#8b5cf6" stroke-opacity="0.6" stroke-width="1" x1="574.4989423496237" y1="416.1628895826286" x2="521.6819679652464" y2="159.45073204752197"/><line stroke="#8b5cf6" stroke-opacity="0.6" stroke-width="1" x1="574.4989423496237" y1="416.1628895826286" x2="391.9011623237567" y2="414.7648849874643"/><line stroke="#8b5cf6" stroke-opacity="0.6" stroke-width="1" x1="574.4989423496237" y1="416.1628895826286" x2="535.826042008881" y2="325.0495816015441"/><line stroke="#8b5cf6" stroke-opacity="0.6" stroke-width="1" x1="574.4989423496237" y1="416.1628895826286" x2="620.3391664283452" y2="322.7324167659412"/><line stroke="#8b5cf6" stroke-opacity="0.6" stroke-width="1" x1="574.4989423496237" y1="416.1628895826286" x2="705.4294882725937" y2="328.1401523203871"/><line stroke="#8b5cf6" stroke-opacity="0.6" stroke-width="1" x1="574.4989423496237" y1="416.1628895826286" x2="661.3356401010398" y2="238.71468184569127"/><line stroke="#8b5cf6" stroke-opacity="0.6" stroke-width="1" x1="574.4989423496237" y1="416.1628895826286" x2="590.2770044610245" y2="586.6341584639434"/><line stroke="#8b5cf6" stroke-opacity="0.6" stroke-width="1" x1="574.4989423496237" y1="416.1628895826286" x2="482.9087414378263" y2="409.79271160838493"/><line stroke="#8b5cf6" stroke-opacity="0.6" stroke-width="1" x1="574.4989423496237" y1="416.1628895826286" x2="480.98526813971785" y2="243.02447888321507"/><line stroke="#8b5cf6" stroke-opacity="0.6" stroke-width="1" x1="574.4989423496237" y1="416.1628895826286" x2="641.7741788653445" y2="506.1931170668149"/><line stroke="#8b5cf6" stroke-opacity="0.6" stroke-width="1" x1="615.2745833320989" y1="156.51589075079494" x2="521.6819679652464" y2="159.45073204752197"/><line stroke="#8b5cf6" stroke-opacity="0.6" stroke-width="1" x1="615.2745833320989" y1="156.51589075079494" x2="535.826042008881" y2="325.0495816015441"/><line stroke="#8b5cf6" stroke-opacity="0.6" stroke-width="1" x1="615.2745833320989" y1="156.51589075079494" x2="435.8313615461862" y2="326.0712896262321"/><line stroke="#8b5cf6" stroke-opacity="0.6" stroke-width="1" x1="615.2745833320989" y1="156.51589075079494" x2="480.98526813971785" y2="243.02447888321507"/><line stroke="#8b5cf6" stroke-opacity="0.6" stroke-width="1" x1="615.2745833320989" y1="156.51589075079494" x2="709.814335069606" y2="159.685300430604"/><line stroke="#8b5cf6" stroke-opacity="0.6" stroke-width="1" x1="615.2745833320989" y1="156.51589075079494" x2="611.2253221671981" y2="-10.98186535923368"/><line stroke="#8b5cf6" stroke-opacity="0.6" stroke-width="1" x1="615.2745833320989" y1="156.51589075079494" x2="661.3356401010398" y2="238.71468184569127"/><line stroke="#8b5cf6" stroke-opacity="0.6" stroke-width="1" x1="615.2745833320989" y1="156.51589075079494" x2="422.45543553592245" y2="164.3463069062633"/><line stroke="#8b5cf6" stroke-opacity="0.6" stroke-width="1" x1="615.2745833320989" y1="156.51589075079494" x2="414.4962441356099" y2="2.8680434796094487"/><line stroke="#8b5cf6" stroke-opacity="0.6" stroke-width="1" x1="521.6819679652464" y1="159.45073204752197" x2="361.2292683334978" y2="494.80547556402416"/><line stroke="#8b5cf6" stroke-opacity="0.6" stroke-width="1" x1="521.6819679652464" y1="159.45073204752197" x2="535.826042008881" y2="325.0495816015441"/><line stroke="#8b5cf6" stroke-opacity="0.6" stroke-width="1" x1="521.6819679652464" y1="159.45073204752197" x2="480.98526813971785" y2="243.02447888321507"/><line stroke="#8b5cf6" stroke-opacity="0.6" stroke-width="1" x1="521.6819679652464" y1="159.45073204752197" x2="482.9087414378263" y2="409.79271160838493"/><line stroke="#8b5cf6" stroke-opacity="0.6" stroke-width="1" x1="75.87909032655332" y1="52.4435634746557" x2="137.56121210799435" y2="454.6024146741712"/><line stroke="#8b5cf6" stroke-opacity="0.6" stroke-width="1" x1="75.87909032655332" y1="52.4435634746557" x2="106.95151512544898" y2="383.76571908594804"/><line stroke="#8b5cf6" stroke-opacity="0.6" stroke-width="1" x1="75.87909032655332" y1="52.4435634746557" x2="-76.69846849590505" y2="365.0121965137129"/><line stroke="#8b5cf6" stroke-opacity="0.6" stroke-width="1" x1="75.87909032655332" y1="52.4435634746557" x2="393.67559378232164" y2="243.86383201073613"/><line stroke="#8b5cf6" stroke-opacity="0.6" stroke-width="1" x1="75.87909032655332" y1="52.4435634746557" x2="0.9783707016151924" y2="535.9252339448961"/><line stroke="#8b5cf6" stroke-opacity="0.6" stroke-width="1" x1="137.56121210799435" y1="454.6024146741712" x2="391.9011623237567" y2="414.7648849874643"/><line stroke="#8b5cf6" stroke-opacity="0.6" stroke-width="1" x1="137.56121210799435" y1="454.6024146741712" x2="52.07470987195328" y2="622.0753594912547"/><line stroke="#8b5cf6" stroke-opacity="0.6" stroke-width="1" x1="137.56121210799435" y1="454.6024146741712" x2="14.391397661770792" y2="697.2558020195977"/><line stroke="#8b5cf6" stroke-opacity="0.6" stroke-width="1" x1="137.56121210799435" y1="454.6024146741712" x2="43.48285853935794" y2="454.39683892589636"/><line stroke="#8b5cf6" stroke-opacity="0.6" stroke-width="1" x1="137.56121210799435" y1="454.6024146741712" x2="-47.61312711346857" y2="623.8751592840869"/><line stroke="#8b5cf6" stroke-opacity="0.6" stroke-width="1" x1="137.56121210799435" y1="454.6024146741712" x2="144.89012584672082" y2="231.14213628088922"/><line stroke="#8b5cf6" stroke-opacity="0.6" stroke-width="1" x1="137.56121210799435" y1="454.6024146741712" x2="310.48426748184113" y2="666.0966985363635"/><line stroke="#8b5cf6" stroke-opacity="0.6" stroke-width="1" x1="109.0921897449996" y1="143.72816214437054" x2="345.5056001528684" y2="339.8258217507753"/><line stroke="#8b5cf6" stroke-opacity="0.6" stroke-width="1" x1="109.0921897449996" y1="143.72816214437054" x2="361.2292683334978" y2="494.80547556402416"/><line stroke="#8b5cf6" stroke-opacity="0.6" stroke-width="1" x1="109.0921897449996" y1="143.72816214437054" x2="-50.41130834000847" y2="194.28236540960626"/><line stroke="#8b5cf6" stroke-opacity="0.6" stroke-width="1" x1="109.0921897449996" y1="143.72816214437054" x2="-94.46674852448777" y2="534.3588843225044"/><line stroke="#8b5cf6" stroke-opacity="0.6" stroke-width="1" x1="247.83154565230777" y1="345.14041338685416" x2="371.7548903871779" y2="751.6040491515497"/><line stroke="#8b5cf6" stroke-opacity="0.6" stroke-width="1" x1="247.83154565230777" y1="345.14041338685416" x2="97.52125651731676" y2="532.780696776063"/><line stroke="#8b5cf6" stroke-opacity="0.6" stroke-width="4.5" x1="247.83154565230777" y1="345.14041338685416" x2="209.13670744827195" y2="423.4676941965119"/><line stroke="#8b5cf6" stroke-opacity="0.6" stroke-width="1" x1="247.83154565230777" y1="345.14041338685416" x2="191.80940954477808" y2="519.9365742331548"/><line stroke="#8b5cf6" stroke-opacity="0.6" stroke-width="1" x1="247.83154565230777" y1="345.14041338685416" x2="149.24334101421687" y2="618.3658814330058"/><line stroke="#8b5cf6" stroke-opacity="0.6" stroke-width="1.5" x1="247.83154565230777" y1="345.14041338685416" x2="16.840874145180397" y2="369.9981868815278"/><line stroke="#8b5cf6" stroke-opacity="0.6" stroke-width="1" x1="247.83154565230777" y1="345.14041338685416" x2="271.7632759762493" y2="497.3970991646126"/><line stroke="#8b5cf6" stroke-opacity="0.6" stroke-width="1" x1="247.83154565230777" y1="345.14041338685416" x2="42.548960068862186" y2="209.48307443475468"/><line stroke="#8b5cf6" stroke-opacity="0.6" stroke-width="1" x1="247.83154565230777" y1="345.14041338685416" x2="393.67559378232164" y2="243.86383201073613"/><line stroke="#8b5cf6" stroke-opacity="0.6" stroke-width="1" x1="247.83154565230777" y1="345.14041338685416" x2="297.3420190389283" y2="417.3789426733637"/><line stroke="#8b5cf6" stroke-opacity="0.6" stroke-width="1" x1="247.83154565230777" y1="345.14041338685416" x2="144.89012584672082" y2="231.14213628088922"/><line stroke="#8b5cf6" stroke-opacity="0.6" stroke-width="1" x1="371.7548903871779" y1="751.6040491515497" x2="97.52125651731676" y2="532.780696776063"/><line stroke="#8b5cf6" stroke-opacity="0.6" stroke-width="1" x1="371.7548903871779" y1="751.6040491515497" x2="113.84809178720329" y2="692.0063803638726"/><line stroke="#8b5cf6" stroke-opacity="0.6" stroke-width="1" x1="371.7548903871779" y1="751.6040491515497" x2="410.4814477889517" y2="660.4523213488843"/><line stroke="#8b5cf6" stroke-opacity="0.6" stroke-width="1" x1="371.7548903871779" y1="751.6040491515497" x2="211.66768600416145" y2="685.9878690818985"/><line stroke="#8b5cf6" stroke-opacity="0.6" stroke-width="1" x1="371.7548903871779" y1="751.6040491515497" x2="149.24334101421687" y2="618.3658814330058"/><line stroke="#8b5cf6" stroke-opacity="0.6" stroke-width="1.5" x1="97.52125651731676" y1="532.780696776063" x2="149.24334101421687" y2="618.3658814330058"/><line stroke="#8b5cf6" stroke-opacity="0.6" stroke-width="1.5" x1="97.52125651731676" y1="532.780696776063" x2="345.5056001528684" y2="339.8258217507753"/><line stroke="#8b5cf6" stroke-opacity="0.6" stroke-width="1" x1="97.52125651731676" y1="532.780696776063" x2="191.80940954477808" y2="519.9365742331548"/><line stroke="#8b5cf6" stroke-opacity="0.6" stroke-width="1" x1="97.52125651731676" y1="532.780696776063" x2="-138.40138906481343" y2="446.6707667098834"/><line stroke="#8b5cf6" stroke-opacity="0.6" stroke-width="2.5" x1="97.52125651731676" y1="532.780696776063" x2="144.89012584672082" y2="231.14213628088922"/><line stroke="#8b5cf6" stroke-opacity="0.6" stroke-width="1.5" x1="97.52125651731676" y1="532.780696776063" x2="16.840874145180397" y2="369.9981868815278"/><line stroke="#8b5cf6" stroke-opacity="0.6" stroke-width="1" x1="97.52125651731676" y1="532.780696776063" x2="275.05582911247524" y2="90.46276166979698"/><line stroke="#8b5cf6" stroke-opacity="0.6" stroke-width="1" x1="97.52125651731676" y1="532.780696776063" x2="42.548960068862186" y2="209.48307443475468"/><line stroke="#8b5cf6" stroke-opacity="0.6" stroke-width="1" x1="97.52125651731676" y1="532.780696776063" x2="-36.95267942519058" y2="452.7921453143664"/><line stroke="#8b5cf6" stroke-opacity="0.6" stroke-width="1" x1="97.52125651731676" y1="532.780696776063" x2="-50.41130834000847" y2="194.28236540960626"/><line stroke="#8b5cf6" stroke-opacity="0.6" stroke-width="1" x1="97.52125651731676" y1="532.780696776063" x2="-76.69846849590505" y2="365.0121965137129"/><line stroke="#8b5cf6" stroke-opacity="0.6" stroke-width="1" x1="393.67559378232164" y1="243.86383201073613" x2="209.13670744827195" y2="423.4676941965119"/><line stroke="#8b5cf6" stroke-opacity="0.6" stroke-width="1" x1="393.67559378232164" y1="243.86383201073613" x2="435.8313615461862" y2="326.0712896262321"/><line stroke="#8b5cf6" stroke-opacity="0.6" stroke-width="1" x1="393.67559378232164" y1="243.86383201073613" x2="144.89012584672082" y2="231.14213628088922"/><line stroke="#8b5cf6" stroke-opacity="0.6" stroke-width="1" x1="393.67559378232164" y1="243.86383201073613" x2="16.840874145180397" y2="369.9981868815278"/><line stroke="#8b5cf6" stroke-opacity="0.6" stroke-width="2.5" x1="209.13670744827195" y1="423.4676941965119" x2="191.80940954477808" y2="519.9365742331548"/><line stroke="#8b5cf6" stroke-opacity="0.6" stroke-width="2" x1="209.13670744827195" y1="423.4676941965119" x2="144.89012584672082" y2="231.14213628088922"/><line stroke="#8b5cf6" stroke-opacity="0.6" stroke-width="2.5" x1="209.13670744827195" y1="423.4676941965119" x2="271.7632759762493" y2="497.3970991646126"/><line stroke="#8b5cf6" stroke-opacity="0.6" stroke-width="1" x1="209.13670744827195" y1="423.4676941965119" x2="410.4814477889517" y2="660.4523213488843"/><line stroke="#8b5cf6" stroke-opacity="0.6" stroke-width="1" x1="209.13670744827195" y1="423.4676941965119" x2="149.24334101421687" y2="618.3658814330058"/><line stroke="#8b5cf6" stroke-opacity="0.6" stroke-width="1" x1="209.13670744827195" y1="423.4676941965119" x2="361.2292683334978" y2="494.80547556402416"/><line stroke="#8b5cf6" stroke-opacity="0.6" stroke-width="2.5" x1="209.13670744827195" y1="423.4676941965119" x2="16.840874145180397" y2="369.9981868815278"/><line stroke="#8b5cf6" stroke-opacity="0.6" stroke-width="1" x1="209.13670744827195" y1="423.4676941965119" x2="366.7693280622017" y2="85.2293047598514"/><line stroke="#8b5cf6" stroke-opacity="0.6" stroke-width="1" x1="410.4814477889517" y1="660.4523213488843" x2="511.2258310688646" y2="-10.805029868713211"/><line stroke="#8b5cf6" stroke-opacity="0.6" stroke-width="1" x1="410.4814477889517" y1="660.4523213488843" x2="106.95151512544898" y2="383.76571908594804"/><line stroke="#8b5cf6" stroke-opacity="0.6" stroke-width="2" x1="410.4814477889517" y1="660.4523213488843" x2="113.84809178720329" y2="692.0063803638726"/><line stroke="#8b5cf6" stroke-opacity="0.6" stroke-width="1" x1="410.4814477889517" y1="660.4523213488843" x2="414.4962441356099" y2="2.8680434796094487"/><line stroke="#8b5cf6" stroke-opacity="0.6" stroke-width="1" x1="410.4814477889517" y1="660.4523213488843" x2="211.66768600416145" y2="685.9878690818985"/><line stroke="#8b5cf6" stroke-opacity="0.6" stroke-width="1" x1="410.4814477889517" y1="660.4523213488843" x2="345.5056001528684" y2="339.8258217507753"/><line stroke="#8b5cf6" stroke-opacity="0.6" stroke-width="1" x1="410.4814477889517" y1="660.4523213488843" x2="52.07470987195328" y2="622.0753594912547"/><line stroke="#8b5cf6" stroke-opacity="0.6" stroke-width="1" x1="410.4814477889517" y1="660.4523213488843" x2="391.9011623237567" y2="414.7648849874643"/><line stroke="#8b5cf6" stroke-opacity="0.6" stroke-width="1" x1="511.2258310688646" y1="-10.805029868713211" x2="414.4962441356099" y2="2.8680434796094487"/><line stroke="#8b5cf6" stroke-opacity="0.6" stroke-width="1" x1="435.8313615461862" y1="326.0712896262321" x2="535.826042008881" y2="325.0495816015441"/><line stroke="#8b5cf6" stroke-opacity="0.6" stroke-width="1" x1="435.8313615461862" y1="326.0712896262321" x2="422.45543553592245" y2="164.3463069062633"/><line stroke="#8b5cf6" stroke-opacity="0.6" stroke-width="1" x1="435.8313615461862" y1="326.0712896262321" x2="659.9617988135858" y2="417.03472741681793"/><line stroke="#8b5cf6" stroke-opacity="0.6" stroke-width="1" x1="435.8313615461862" y1="326.0712896262321" x2="480.98526813971785" y2="243.02447888321507"/><line stroke="#8b5cf6" stroke-opacity="0.6" stroke-width="1" x1="535.826042008881" y1="325.0495816015441" x2="659.9617988135858" y2="417.03472741681793"/><line stroke="#8b5cf6" stroke-opacity="0.6" stroke-width="1" x1="535.826042008881" y1="325.0495816015441" x2="641.7741788653445" y2="506.1931170668149"/><line stroke="#8b5cf6" stroke-opacity="0.6" stroke-width="1" x1="422.45543553592245" y1="164.3463069062633" x2="366.7693280622017" y2="85.2293047598514"/><line stroke="#8b5cf6" stroke-opacity="0.6" stroke-width="2" x1="422.45543553592245" y1="164.3463069062633" x2="611.2253221671981" y2="-10.98186535923368"/><line stroke="#8b5cf6" stroke-opacity="0.6" stroke-width="1" x1="422.45543553592245" y1="164.3463069062633" x2="661.0322446793252" y2="74.13123054014841"/><line stroke="#8b5cf6" stroke-opacity="0.6" stroke-width="1" x1="422.45543553592245" y1="164.3463069062633" x2="709.814335069606" y2="159.685300430604"/><line stroke="#8b5cf6" stroke-opacity="0.6" stroke-width="1" x1="422.45543553592245" y1="164.3463069062633" x2="191.80940954477808" y2="519.9365742331548"/><line stroke="#8b5cf6" stroke-opacity="0.6" stroke-width="1" x1="422.45543553592245" y1="164.3463069062633" x2="480.98526813971785" y2="243.02447888321507"/><line stroke="#8b5cf6" stroke-opacity="0.6" stroke-width="1" x1="366.7693280622017" y1="85.2293047598514" x2="611.2253221671981" y2="-10.98186535923368"/><line stroke="#8b5cf6" stroke-opacity="0.6" stroke-width="1" x1="611.2253221671981" y1="-10.98186535923368" x2="709.814335069606" y2="159.685300430604"/><line stroke="#8b5cf6" stroke-opacity="0.6" stroke-width="1" x1="275.05582911247524" y1="90.46276166979698" x2="-50.41130834000847" y2="194.28236540960626"/><line stroke="#8b5cf6" stroke-opacity="0.6" stroke-width="1" x1="275.05582911247524" y1="90.46276166979698" x2="361.2292683334978" y2="494.80547556402416"/><line stroke="#8b5cf6" stroke-opacity="0.6" stroke-width="1" x1="275.05582911247524" y1="90.46276166979698" x2="136.87550127640267" y2="-12.60553110496937"/><line stroke="#8b5cf6" stroke-opacity="0.6" stroke-width="1" x1="275.05582911247524" y1="90.46276166979698" x2="16.840874145180397" y2="369.9981868815278"/><line stroke="#8b5cf6" stroke-opacity="0.6" stroke-width="1" x1="275.05582911247524" y1="90.46276166979698" x2="191.80940954477808" y2="519.9365742331548"/><line stroke="#8b5cf6" stroke-opacity="0.6" stroke-width="1.5" x1="275.05582911247524" y1="90.46276166979698" x2="171.83250646905293" y2="76.00236157566101"/><line stroke="#8b5cf6" stroke-opacity="0.6" stroke-width="1" x1="-50.41130834000847" y1="194.28236540960626" x2="297.3420190389283" y2="417.3789426733637"/><line stroke="#8b5cf6" stroke-opacity="0.6" stroke-width="1" x1="-50.41130834000847" y1="194.28236540960626" x2="14.391397661770792" y2="697.2558020195977"/><line stroke="#8b5cf6" stroke-opacity="0.6" stroke-width="1" x1="-50.41130834000847" y1="194.28236540960626" x2="-36.95267942519058" y2="452.7921453143664"/><line stroke="#8b5cf6" stroke-opacity="0.6" stroke-width="8" x1="-50.41130834000847" y1="194.28236540960626" x2="-147.0228665620059" y2="183.11114497857574"/><line stroke="#8b5cf6" stroke-opacity="0.6" stroke-width="1" x1="-50.41130834000847" y1="194.28236540960626" x2="42.548960068862186" y2="209.48307443475468"/><line stroke="#8b5cf6" stroke-opacity="0.6" stroke-width="1" x1="-50.41130834000847" y1="194.28236540960626" x2="16.840874145180397" y2="369.9981868815278"/><line stroke="#8b5cf6" stroke-opacity="0.6" stroke-width="4.5" x1="16.840874145180397" y1="369.9981868815278" x2="149.24334101421687" y2="618.3658814330058"/><line stroke="#8b5cf6" stroke-opacity="0.6" stroke-width="2.5" x1="16.840874145180397" y1="369.9981868815278" x2="191.80940954477808" y2="519.9365742331548"/><line stroke="#8b5cf6" stroke-opacity="0.6" stroke-width="1" x1="16.840874145180397" y1="369.9981868815278" x2="-115.35659297934846" y2="270.3091407799618"/><line stroke="#8b5cf6" stroke-opacity="0.6" stroke-width="1" x1="16.840874145180397" y1="369.9981868815278" x2="42.548960068862186" y2="209.48307443475468"/><line stroke="#8b5cf6" stroke-opacity="0.6" stroke-width="8" x1="16.840874145180397" y1="369.9981868815278" x2="144.89012584672082" y2="231.14213628088922"/><line stroke="#8b5cf6" stroke-opacity="0.6" stroke-width="1" x1="16.840874145180397" y1="369.9981868815278" x2="345.5056001528684" y2="339.8258217507753"/><line stroke="#8b5cf6" stroke-opacity="0.6" stroke-width="1" x1="16.840874145180397" y1="369.9981868815278" x2="171.83250646905293" y2="76.00236157566101"/><line stroke="#8b5cf6" stroke-opacity="0.6" stroke-width="1" x1="16.840874145180397" y1="369.9981868815278" x2="-36.95267942519058" y2="452.7921453143664"/><line stroke="#8b5cf6" stroke-opacity="0.6" stroke-width="1" x1="16.840874145180397" y1="369.9981868815278" x2="43.48285853935794" y2="454.39683892589636"/><line stroke="#8b5cf6" stroke-opacity="0.6" stroke-width="1" x1="16.840874145180397" y1="369.9981868815278" x2="301.22734420672367" y2="253.97162753695034"/><line stroke="#8b5cf6" stroke-opacity="0.6" stroke-width="1" x1="234.85946371326918" y1="-1.4259003498639307" x2="345.5056001528684" y2="339.8258217507753"/><line stroke="#8b5cf6" stroke-opacity="0.6" stroke-width="1" x1="234.85946371326918" y1="-1.4259003498639307" x2="376.31178976226494" y2="-81.72335862809324"/><line stroke="#8b5cf6" stroke-opacity="0.6" stroke-width="1" x1="234.85946371326918" y1="-1.4259003498639307" x2="144.89012584672082" y2="231.14213628088922"/><line stroke="#8b5cf6" stroke-opacity="0.6" stroke-width="1" x1="234.85946371326918" y1="-1.4259003498639307" x2="271.7632759762493" y2="497.3970991646126"/><line stroke="#8b5cf6" stroke-opacity="0.6" stroke-width="1" x1="361.2292683334978" y1="494.80547556402416" x2="297.3420190389283" y2="417.3789426733637"/><line stroke="#8b5cf6" stroke-opacity="0.6" stroke-width="1" x1="361.2292683334978" y1="494.80547556402416" x2="271.7632759762493" y2="497.3970991646126"/><line stroke="#8b5cf6" stroke-opacity="0.6" stroke-width="1" x1="297.3420190389283" y1="417.3789426733637" x2="310.48426748184113" y2="666.0966985363635"/><line stroke="#8b5cf6" stroke-opacity="0.6" stroke-width="1" x1="297.3420190389283" y1="417.3789426733637" x2="271.7632759762493" y2="497.3970991646126"/><line stroke="#8b5cf6" stroke-opacity="0.6" stroke-width="1" x1="297.3420190389283" y1="417.3789426733637" x2="211.66768600416145" y2="685.9878690818985"/><line stroke="#8b5cf6" stroke-opacity="0.6" stroke-width="1" x1="297.3420190389283" y1="417.3789426733637" x2="414.1915078191025" y2="572.863137367123"/><line stroke="#8b5cf6" stroke-opacity="0.6" stroke-width="1" x1="297.3420190389283" y1="417.3789426733637" x2="187.99230931208444" y2="-89.76293078838741"/><line stroke="#8b5cf6" stroke-opacity="0.6" stroke-width="1" x1="297.3420190389283" y1="417.3789426733637" x2="45.01264301680899" y2="-39.93157383523682"/><line stroke="#8b5cf6" stroke-opacity="0.6" stroke-width="1" x1="414.1915078191025" y1="572.863137367123" x2="171.83250646905293" y2="76.00236157566101"/><line stroke="#8b5cf6" stroke-opacity="0.6" stroke-width="1" x1="414.1915078191025" y1="572.863137367123" x2="191.80940954477808" y2="519.9365742331548"/><line stroke="#8b5cf6" stroke-opacity="0.6" stroke-width="1" x1="310.48426748184113" y1="666.0966985363635" x2="144.89012584672082" y2="231.14213628088922"/><line stroke="#8b5cf6" stroke-opacity="0.6" stroke-width="1" x1="310.48426748184113" y1="666.0966985363635" x2="191.80940954477808" y2="519.9365742331548"/><line stroke="#8b5cf6" stroke-opacity="0.6" stroke-width="1" x1="345.5056001528684" y1="339.8258217507753" x2="376.31178976226494" y2="-81.72335862809324"/><line stroke="#8b5cf6" stroke-opacity="0.6" stroke-width="1" x1="345.5056001528684" y1="339.8258217507753" x2="414.4962441356099" y2="2.8680434796094487"/><line stroke="#8b5cf6" stroke-opacity="0.6" stroke-width="1" x1="345.5056001528684" y1="339.8258217507753" x2="211.66768600416145" y2="685.9878690818985"/><line stroke="#8b5cf6" stroke-opacity="0.6" stroke-width="1" x1="345.5056001528684" y1="339.8258217507753" x2="271.7632759762493" y2="497.3970991646126"/><line stroke="#8b5cf6" stroke-opacity="0.6" stroke-width="1.5" x1="376.31178976226494" y1="-81.72335862809324" x2="187.99230931208444" y2="-89.76293078838741"/><line stroke="#8b5cf6" stroke-opacity="0.6" stroke-width="1" x1="0.9783707016151924" y1="535.9252339448961" x2="52.07470987195328" y2="622.0753594912547"/><line stroke="#8b5cf6" stroke-opacity="0.6" stroke-width="1" x1="0.9783707016151924" y1="535.9252339448961" x2="271.7632759762493" y2="497.3970991646126"/><line stroke="#8b5cf6" stroke-opacity="0.6" stroke-width="1" x1="191.80940954477808" y1="519.9365742331548" x2="-94.46674852448777" y2="534.3588843225044"/><line stroke="#8b5cf6" stroke-opacity="0.6" stroke-width="3" x1="191.80940954477808" y1="519.9365742331548" x2="271.7632759762493" y2="497.3970991646126"/><line stroke="#8b5cf6" stroke-opacity="0.6" stroke-width="1" x1="191.80940954477808" y1="519.9365742331548" x2="-76.69846849590505" y2="365.0121965137129"/><line stroke="#8b5cf6" stroke-opacity="0.6" stroke-width="3.5" x1="191.80940954477808" y1="519.9365742331548" x2="144.89012584672082" y2="231.14213628088922"/><line stroke="#8b5cf6" stroke-opacity="0.6" stroke-width="1" x1="191.80940954477808" y1="519.9365742331548" x2="149.24334101421687" y2="618.3658814330058"/><line stroke="#8b5cf6" stroke-opacity="0.6" stroke-width="1" x1="191.80940954477808" y1="519.9365742331548" x2="-36.95267942519058" y2="452.7921453143664"/><line stroke="#8b5cf6" stroke-opacity="0.6" stroke-width="1" x1="187.99230931208444" y1="-89.76293078838741" x2="171.83250646905293" y2="76.00236157566101"/><line stroke="#8b5cf6" stroke-opacity="0.6" stroke-width="1" x1="661.3356401010398" y1="238.71468184569127" x2="480.98526813971785" y2="243.02447888321507"/><line stroke="#8b5cf6" stroke-opacity="0.6" stroke-width="1" x1="661.3356401010398" y1="238.71468184569127" x2="620.3391664283452" y2="322.7324167659412"/><line stroke="#8b5cf6" stroke-opacity="0.6" stroke-width="1" x1="661.3356401010398" y1="238.71468184569127" x2="641.7741788653445" y2="506.1931170668149"/><line stroke="#8b5cf6" stroke-opacity="0.6" stroke-width="1" x1="480.98526813971785" y1="243.02447888321507" x2="620.3391664283452" y2="322.7324167659412"/><line stroke="#8b5cf6" stroke-opacity="0.6" stroke-width="1" x1="480.98526813971785" y1="243.02447888321507" x2="661.0322446793252" y2="74.13123054014841"/><line stroke="#8b5cf6" stroke-opacity="0.6" stroke-width="1" x1="480.98526813971785" y1="243.02447888321507" x2="705.4294882725937" y2="328.1401523203871"/><line stroke="#8b5cf6" stroke-opacity="0.6" stroke-width="1" x1="480.98526813971785" y1="243.02447888321507" x2="482.9087414378263" y2="409.79271160838493"/><line stroke="#8b5cf6" stroke-opacity="0.6" stroke-width="1" x1="480.98526813971785" y1="243.02447888321507" x2="641.7741788653445" y2="506.1931170668149"/><line stroke="#8b5cf6" stroke-opacity="0.6" stroke-width="1" x1="620.3391664283452" y1="322.7324167659412" x2="659.9617988135858" y2="417.03472741681793"/><line stroke="#8b5cf6" stroke-opacity="0.6" stroke-width="1" x1="659.9617988135858" y1="417.03472741681793" x2="803.320296200952" y2="338.02144945225194"/><line stroke="#8b5cf6" stroke-opacity="0.6" stroke-width="1" x1="659.9617988135858" y1="417.03472741681793" x2="759.2258103444813" y2="427.77464384252244"/><line stroke="#8b5cf6" stroke-opacity="0.6" stroke-width="1" x1="659.9617988135858" y1="417.03472741681793" x2="705.4294882725937" y2="328.1401523203871"/><line stroke="#8b5cf6" stroke-opacity="0.6" stroke-width="1" x1="659.9617988135858" y1="417.03472741681793" x2="709.814335069606" y2="159.685300430604"/><line stroke="#8b5cf6" stroke-opacity="0.6" stroke-width="1" x1="659.9617988135858" y1="417.03472741681793" x2="590.2770044610245" y2="586.6341584639434"/><line stroke="#8b5cf6" stroke-opacity="0.6" stroke-width="1" x1="659.9617988135858" y1="417.03472741681793" x2="691.4668031584638" y2="590.902033141396"/><line stroke="#8b5cf6" stroke-opacity="0.6" stroke-width="1" x1="391.9011623237567" y1="414.7648849874643" x2="52.07470987195328" y2="622.0753594912547"/><line stroke="#8b5cf6" stroke-opacity="0.6" stroke-width="1" x1="391.9011623237567" y1="414.7648849874643" x2="-83.34819026832989" y2="107.90426243311073"/><line stroke="#8b5cf6" stroke-opacity="0.6" stroke-width="1" x1="391.9011623237567" y1="414.7648849874643" x2="149.24334101421687" y2="618.3658814330058"/><line stroke="#8b5cf6" stroke-opacity="0.6" stroke-width="1" x1="391.9011623237567" y1="414.7648849874643" x2="301.22734420672367" y2="253.97162753695034"/><line stroke="#8b5cf6" stroke-opacity="0.6" stroke-width="1" x1="52.07470987195328" y1="622.0753594912547" x2="-83.34819026832989" y2="107.90426243311073"/><line stroke="#8b5cf6" stroke-opacity="0.6" stroke-width="1" x1="52.07470987195328" y1="622.0753594912547" x2="211.66768600416145" y2="685.9878690818985"/><line stroke="#8b5cf6" stroke-opacity="0.6" stroke-width="1" x1="52.07470987195328" y1="622.0753594912547" x2="113.84809178720329" y2="692.0063803638726"/><line stroke="#8b5cf6" stroke-opacity="0.6" stroke-width="1" x1="52.07470987195328" y1="622.0753594912547" x2="106.95151512544898" y2="383.76571908594804"/><line stroke="#8b5cf6" stroke-opacity="0.6" stroke-width="1" x1="106.95151512544898" y1="383.76571908594804" x2="-115.35659297934846" y2="270.3091407799618"/><line stroke="#8b5cf6" stroke-opacity="0.6" stroke-width="1" x1="106.95151512544898" y1="383.76571908594804" x2="414.4962441356099" y2="2.8680434796094487"/><line stroke="#8b5cf6" stroke-opacity="0.6" stroke-width="1" x1="113.84809178720329" y1="692.0063803638726" x2="-94.46674852448777" y2="534.3588843225044"/><line stroke="#8b5cf6" stroke-opacity="0.6" stroke-width="1" x1="113.84809178720329" y1="692.0063803638726" x2="-36.95267942519058" y2="452.7921453143664"/><line stroke="#8b5cf6" stroke-opacity="0.6" stroke-width="1" x1="113.84809178720329" y1="692.0063803638726" x2="149.24334101421687" y2="618.3658814330058"/><line stroke="#8b5cf6" stroke-opacity="0.6" stroke-width="8" x1="271.7632759762493" y1="497.3970991646126" x2="144.89012584672082" y2="231.14213628088922"/><line stroke="#8b5cf6" stroke-opacity="0.6" stroke-width="1" x1="271.7632759762493" y1="497.3970991646126" x2="301.22734420672367" y2="253.97162753695034"/><line stroke="#8b5cf6" stroke-opacity="0.6" stroke-width="1" x1="271.7632759762493" y1="497.3970991646126" x2="42.548960068862186" y2="209.48307443475468"/><line stroke="#8b5cf6" stroke-opacity="0.6" stroke-width="1" x1="271.7632759762493" y1="497.3970991646126" x2="-76.69846849590505" y2="365.0121965137129"/><line stroke="#8b5cf6" stroke-opacity="0.6" stroke-width="1" x1="271.7632759762493" y1="497.3970991646126" x2="14.391397661770792" y2="697.2558020195977"/><line stroke="#8b5cf6" stroke-opacity="0.6" stroke-width="1" x1="271.7632759762493" y1="497.3970991646126" x2="136.87550127640267" y2="-12.60553110496937"/><line stroke="#8b5cf6" stroke-opacity="0.6" stroke-width="1" x1="271.7632759762493" y1="497.3970991646126" x2="334.8736111575076" y2="576.7932673650528"/><line stroke="#8b5cf6" stroke-opacity="0.6" stroke-width="1" x1="-94.46674852448777" y1="534.3588843225044" x2="-175.89578608261294" y2="352.3673485930887"/><line stroke="#8b5cf6" stroke-opacity="0.6" stroke-width="1" x1="-94.46674852448777" y1="534.3588843225044" x2="-138.40138906481343" y2="446.6707667098834"/><line stroke="#8b5cf6" stroke-opacity="0.6" stroke-width="1" x1="-94.46674852448777" y1="534.3588843225044" x2="-115.35659297934846" y2="270.3091407799618"/><line stroke="#8b5cf6" stroke-opacity="0.6" stroke-width="1" x1="171.83250646905293" y1="76.00236157566101" x2="42.548960068862186" y2="209.48307443475468"/><line stroke="#8b5cf6" stroke-opacity="0.6" stroke-width="1" x1="171.83250646905293" y1="76.00236157566101" x2="136.87550127640267" y2="-12.60553110496937"/><line stroke="#8b5cf6" stroke-opacity="0.6" stroke-width="1" x1="171.83250646905293" y1="76.00236157566101" x2="144.89012584672082" y2="231.14213628088922"/><line stroke="#8b5cf6" stroke-opacity="0.6" stroke-width="1" x1="149.24334101421687" y1="618.3658814330058" x2="-76.69846849590505" y2="365.0121965137129"/><line stroke="#8b5cf6" stroke-opacity="0.6" stroke-width="1" x1="149.24334101421687" y1="618.3658814330058" x2="14.391397661770792" y2="697.2558020195977"/><line stroke="#8b5cf6" stroke-opacity="0.6" stroke-width="1" x1="149.24334101421687" y1="618.3658814330058" x2="-138.40138906481343" y2="446.6707667098834"/><line stroke="#8b5cf6" stroke-opacity="0.6" stroke-width="1" x1="149.24334101421687" y1="618.3658814330058" x2="144.89012584672082" y2="231.14213628088922"/><line stroke="#8b5cf6" stroke-opacity="0.6" stroke-width="1" x1="144.89012584672082" y1="231.14213628088922" x2="-36.95267942519058" y2="452.7921453143664"/><line stroke="#8b5cf6" stroke-opacity="0.6" stroke-width="1" x1="144.89012584672082" y1="231.14213628088922" x2="43.48285853935794" y2="454.39683892589636"/><line stroke="#8b5cf6" stroke-opacity="0.6" stroke-width="1" x1="144.89012584672082" y1="231.14213628088922" x2="301.22734420672367" y2="253.97162753695034"/><line stroke="#8b5cf6" stroke-opacity="0.6" stroke-width="1" x1="211.66768600416145" y1="685.9878690818985" x2="334.8736111575076" y2="576.7932673650528"/><line stroke="#8b5cf6" stroke-opacity="0.6" stroke-width="1" x1="240.1905146198197" y1="851.3900221500609" x2="80.59170001124632" y2="770.3239152205507"/><line stroke="#8b5cf6" stroke-opacity="0.6" stroke-width="1" x1="240.1905146198197" y1="851.3900221500609" x2="275.7872665484447" y2="756.8481724753224"/><line stroke="#8b5cf6" stroke-opacity="0.6" stroke-width="1" x1="240.1905146198197" y1="851.3900221500609" x2="178.55446936056555" y2="765.6886177180079"/><line stroke="#8b5cf6" stroke-opacity="0.6" stroke-width="1" x1="240.1905146198197" y1="851.3900221500609" x2="41.621939022730324" y2="863.0083553151567"/><line stroke="#8b5cf6" stroke-opacity="0.6" stroke-width="1" x1="240.1905146198197" y1="851.3900221500609" x2="-25.28416664349173" y2="789.3619821782181"/><line stroke="#8b5cf6" stroke-opacity="0.6" stroke-width="1" x1="240.1905146198197" y1="851.3900221500609" x2="140.891632479209" y2="857.9706365256051"/><line stroke="#8b5cf6" stroke-opacity="0.6" stroke-width="1" x1="80.59170001124632" y1="770.3239152205507" x2="275.7872665484447" y2="756.8481724753224"/><line stroke="#8b5cf6" stroke-opacity="0.6" stroke-width="1" x1="80.59170001124632" y1="770.3239152205507" x2="178.55446936056555" y2="765.6886177180079"/><line stroke="#8b5cf6" stroke-opacity="0.6" stroke-width="1" x1="80.59170001124632" y1="770.3239152205507" x2="41.621939022730324" y2="863.0083553151567"/><line stroke="#8b5cf6" stroke-opacity="0.6" stroke-width="1" x1="80.59170001124632" y1="770.3239152205507" x2="-25.28416664349173" y2="789.3619821782181"/><line stroke="#8b5cf6" stroke-opacity="0.6" stroke-width="1" x1="80.59170001124632" y1="770.3239152205507" x2="140.891632479209" y2="857.9706365256051"/><line stroke="#8b5cf6" stroke-opacity="0.6" stroke-width="1" x1="-36.95267942519058" y1="452.7921453143664" x2="-115.35659297934846" y2="270.3091407799618"/><line stroke="#8b5cf6" stroke-opacity="0.6" stroke-width="1" x1="-36.95267942519058" y1="452.7921453143664" x2="-147.0228665620059" y2="183.11114497857574"/><line stroke="#8b5cf6" stroke-opacity="0.6" stroke-width="1" x1="-36.95267942519058" y1="452.7921453143664" x2="42.548960068862186" y2="209.48307443475468"/><line stroke="#8b5cf6" stroke-opacity="0.6" stroke-width="2" x1="-115.35659297934846" y1="270.3091407799618" x2="-138.40138906481343" y2="446.6707667098834"/><line stroke="#8b5cf6" stroke-opacity="0.6" stroke-width="1" x1="-115.35659297934846" y1="270.3091407799618" x2="-83.34819026832989" y2="107.90426243311073"/><line stroke="#8b5cf6" stroke-opacity="0.6" stroke-width="1" x1="14.391397661770792" y1="697.2558020195977" x2="-76.69846849590505" y2="365.0121965137129"/><line stroke="#8b5cf6" stroke-opacity="0.6" stroke-width="1" x1="301.22734420672367" y1="253.97162753695034" x2="334.8736111575076" y2="576.7932673650528"/><line stroke="#8b5cf6" stroke-opacity="0.6" stroke-width="1" x1="-47.61312711346857" y1="623.8751592840869" x2="-138.40138906481343" y2="446.6707667098834"/><line stroke="#8b5cf6" stroke-opacity="0.6" stroke-width="1" x1="-47.61312711346857" y1="623.8751592840869" x2="-76.69846849590505" y2="365.0121965137129"/><line stroke="#8b5cf6" stroke-opacity="0.6" stroke-width="1" x1="-47.61312711346857" y1="623.8751592840869" x2="43.48285853935794" y2="454.39683892589636"/><line stroke="#8b5cf6" stroke-opacity="0.6" stroke-width="1" x1="-76.69846849590505" y1="365.0121965137129" x2="136.87550127640267" y2="-12.60553110496937"/><line stroke="#8b5cf6" stroke-opacity="0.6" stroke-width="1" x1="-76.69846849590505" y1="365.0121965137129" x2="-138.40138906481343" y2="446.6707667098834"/><line stroke="#8b5cf6" stroke-opacity="0.6" stroke-width="1" x1="275.7872665484447" y1="756.8481724753224" x2="178.55446936056555" y2="765.6886177180079"/><line stroke="#8b5cf6" stroke-opacity="0.6" stroke-width="1" x1="275.7872665484447" y1="756.8481724753224" x2="41.621939022730324" y2="863.0083553151567"/><line stroke="#8b5cf6" stroke-opacity="0.6" stroke-width="1" x1="275.7872665484447" y1="756.8481724753224" x2="-25.28416664349173" y2="789.3619821782181"/><line stroke="#8b5cf6" stroke-opacity="0.6" stroke-width="1" x1="275.7872665484447" y1="756.8481724753224" x2="140.891632479209" y2="857.9706365256051"/><line stroke="#8b5cf6" stroke-opacity="0.6" stroke-width="1" x1="661.0322446793252" y1="74.13123054014841" x2="705.4294882725937" y2="328.1401523203871"/><line stroke="#8b5cf6" stroke-opacity="0.6" stroke-width="1" x1="757.262524958047" y1="245.5281487828608" x2="759.2258103444813" y2="427.77464384252244"/><line stroke="#8b5cf6" stroke-opacity="0.6" stroke-width="1" x1="757.262524958047" y1="245.5281487828608" x2="803.320296200952" y2="338.02144945225194"/><line stroke="#8b5cf6" stroke-opacity="0.6" stroke-width="1" x1="759.2258103444813" y1="427.77464384252244" x2="803.320296200952" y2="338.02144945225194"/><line stroke="#8b5cf6" stroke-opacity="0.6" stroke-width="1" x1="641.7741788653445" y1="506.1931170668149" x2="590.2770044610245" y2="586.6341584639434"/><line stroke="#8b5cf6" stroke-opacity="0.6" stroke-width="1" x1="641.7741788653445" y1="506.1931170668149" x2="482.9087414378263" y2="409.79271160838493"/><line stroke="#8b5cf6" stroke-opacity="0.6" stroke-width="1" x1="531.3368020448995" y1="669.1189609088357" x2="496.22762647946104" y2="580.0031008242283"/><line stroke="#8b5cf6" stroke-opacity="0.6" stroke-width="1" x1="531.3368020448995" y1="669.1189609088357" x2="468.32318658773323" y2="743.6413213663184"/><line stroke="#8b5cf6" stroke-opacity="0.6" stroke-width="1.5" x1="496.22762647946104" y1="580.0031008242283" x2="468.32318658773323" y2="743.6413213663184"/><line stroke="#8b5cf6" stroke-opacity="0.6" stroke-width="1" x1="140.891632479209" y1="857.9706365256051" x2="178.55446936056555" y2="765.6886177180079"/><line stroke="#8b5cf6" stroke-opacity="0.6" stroke-width="1" x1="140.891632479209" y1="857.9706365256051" x2="41.621939022730324" y2="863.0083553151567"/><line stroke="#8b5cf6" stroke-opacity="0.6" stroke-width="1" x1="140.891632479209" y1="857.9706365256051" x2="-25.28416664349173" y2="789.3619821782181"/><line stroke="#8b5cf6" stroke-opacity="0.6" stroke-width="2" x1="691.4668031584638" y1="590.902033141396" x2="561.4583968590667" y2="761.7113588942636"/><line stroke="#8b5cf6" stroke-opacity="0.6" stroke-width="1.5" x1="691.4668031584638" y1="590.902033141396" x2="590.2770044610245" y2="586.6341584639434"/><line stroke="#8b5cf6" stroke-opacity="0.6" stroke-width="2" x1="561.4583968590667" y1="761.7113588942636" x2="590.2770044610245" y2="586.6341584639434"/><line stroke="#8b5cf6" stroke-opacity="0.6" stroke-width="1" x1="561.4583968590667" y1="761.7113588942636" x2="630.4283960001624" y2="679.3622733372778"/><line stroke="#8b5cf6" stroke-opacity="0.6" stroke-width="4" x1="590.2770044610245" y1="586.6341584639434" x2="630.4283960001624" y2="679.3622733372778"/><line stroke="#8b5cf6" stroke-opacity="0.6" stroke-width="1" x1="178.55446936056555" y1="765.6886177180079" x2="41.621939022730324" y2="863.0083553151567"/><line stroke="#8b5cf6" stroke-opacity="0.6" stroke-width="1" x1="178.55446936056555" y1="765.6886177180079" x2="-25.28416664349173" y2="789.3619821782181"/><line stroke="#8b5cf6" stroke-opacity="0.6" stroke-width="1" x1="41.621939022730324" y1="863.0083553151567" x2="-25.28416664349173" y2="789.3619821782181"/></g><g><circle class="graph-node" tabindex="-1" r="13.416407864998739" fill="#1f77b4" stroke="#fff" stroke-width="2" cx="281.6991207112753" cy="-86.25016632034242"/><circle class="graph-node" tabindex="-1" r="14.387494569938157" fill="#ff7f0e" stroke="#fff" stroke-width="2" cx="322.14478841915263" cy="1.7357131670981623"/><circle class="graph-node" tabindex="-1" r="17.233687939614086" fill="#2ca02c" stroke="#fff" stroke-width="2" cx="615.2745833320989" cy="156.51589075079494"/><circle class="graph-node" tabindex="-1" r="20.346989949375804" fill="#d62728" stroke="#fff" stroke-width="2" cx="325.30224166850877" cy="170.44540573265428"/><circle class="graph-node" tabindex="-1" r="10.816653826391967" fill="#9467bd" stroke="#fff" stroke-width="2" cx="136.87550127640267" cy="-12.60553110496937"/><circle class="graph-node" tabindex="-1" r="24.919871588754226" fill="#8c564b" stroke="#fff" stroke-width="2" cx="226.0772742826261" cy="252.1558725896941"/><circle class="graph-node" tabindex="-1" r="13.076696830622023" fill="#e377c2" stroke="#fff" stroke-width="2" cx="414.1915078191025" cy="572.863137367123"/><circle class="graph-node" tabindex="-1" r="22.44994432064365" fill="#7f7f7f" stroke="#fff" stroke-width="2" cx="209.13670744827195" cy="423.4676941965119"/><circle class="graph-node" tabindex="-1" r="10.392304845413264" fill="#bcbd22" stroke="#fff" stroke-width="2" cx="13.262115939680005" cy="124.83754204321981"/><circle class="graph-node" tabindex="-1" r="13.076696830622023" fill="#17becf" stroke="#fff" stroke-width="2" cx="275.05582911247524" cy="90.46276166979698"/><circle class="graph-node" tabindex="-1" r="25.80697580112788" fill="#1f77b4" stroke="#fff" stroke-width="2" cx="211.49430707786794" cy="166.6635292963346"/><circle class="graph-node" tabindex="-1" r="15.874507866387544" fill="#ff7f0e" stroke="#fff" stroke-width="2" cx="297.3420190389283" cy="417.3789426733637"/><circle class="graph-node" tabindex="-1" r="12.727922061357855" fill="#2ca02c" stroke="#fff" stroke-width="2" cx="521.6819679652464" cy="159.45073204752197"/><circle class="graph-node" tabindex="-1" r="10.392304845413264" fill="#d62728" stroke="#fff" stroke-width="2" cx="366.7693280622017" cy="85.2293047598514"/><circle class="graph-node" tabindex="-1" r="28.930952282978865" fill="#9467bd" stroke="#fff" stroke-width="2" cx="16.840874145180397" cy="369.9981868815278"/><circle class="graph-node" tabindex="-1" r="9.9498743710662" fill="#8c564b" stroke="#fff" stroke-width="2" cx="414.4962441356099" cy="2.8680434796094487"/><circle class="graph-node" tabindex="-1" r="16.15549442140351" fill="#e377c2" stroke="#fff" stroke-width="2" cx="549.4465060569994" cy="499.57915423898305"/><circle class="graph-node" tabindex="-1" r="12.727922061357855" fill="#7f7f7f" stroke="#fff" stroke-width="2" cx="661.3356401010398" cy="238.71468184569127"/><circle class="graph-node" tabindex="-1" r="14.387494569938157" fill="#bcbd22" stroke="#fff" stroke-width="2" cx="564.7025676044782" cy="79.81880603062561"/><circle class="graph-node" tabindex="-1" r="16.703293088490064" fill="#17becf" stroke="#fff" stroke-width="2" cx="480.98526813971785" cy="243.02447888321507"/><circle class="graph-node" tabindex="-1" r="18.973665961010276" fill="#1f77b4" stroke="#fff" stroke-width="2" cx="572.4602378176232" cy="236.22461986244554"/><circle class="graph-node" tabindex="-1" r="10.392304845413264" fill="#ff7f0e" stroke="#fff" stroke-width="2" cx="620.3391664283452" cy="322.7324167659412"/><circle class="graph-node" tabindex="-1" r="9.9498743710662" fill="#2ca02c" stroke="#fff" stroke-width="2" cx="531.3368020448995" cy="669.1189609088357"/><circle class="graph-node" tabindex="-1" r="10.816653826391967" fill="#d62728" stroke="#fff" stroke-width="2" cx="496.22762647946104" cy="580.0031008242283"/><circle class="graph-node" tabindex="-1" r="11.224972160321824" fill="#9467bd" stroke="#fff" stroke-width="2" cx="468.32318658773323" cy="743.6413213663184"/><circle class="graph-node" tabindex="-1" r="14.071247279470288" fill="#8c564b" stroke="#fff" stroke-width="2" cx="391.9011623237567" cy="414.7648849874643"/><circle class="graph-node" tabindex="-1" r="18.49324200890693" fill="#e377c2" stroke="#fff" stroke-width="2" cx="574.4989423496237" cy="416.1628895826286"/><circle class="graph-node" tabindex="-1" r="10.816653826391967" fill="#7f7f7f" stroke="#fff" stroke-width="2" cx="482.9087414378263" cy="409.79271160838493"/><circle class="graph-node" tabindex="-1" r="10.392304845413264" fill="#bcbd22" stroke="#fff" stroke-width="2" cx="641.7741788653445" cy="506.1931170668149"/><circle class="graph-node" tabindex="-1" r="30" fill="#17becf" stroke="#fff" stroke-width="2" cx="169.65298201722868" cy="317.7392585382472"/><circle class="graph-node" tabindex="-1" r="11.224972160321824" fill="#1f77b4" stroke="#fff" stroke-width="2" cx="393.67559378232164" cy="243.86383201073613"/><circle class="graph-node" tabindex="-1" r="30.446674695276656" fill="#ff7f0e" stroke="#fff" stroke-width="2" cx="144.89012584672082" cy="231.14213628088922"/><circle class="graph-node" tabindex="-1" r="28.930952282978865" fill="#2ca02c" stroke="#fff" stroke-width="2" cx="271.7632759762493" cy="497.3970991646126"/><circle class="graph-node" tabindex="-1" r="10.392304845413264" fill="#d62728" stroke="#fff" stroke-width="2" cx="43.48285853935794" cy="454.39683892589636"/><circle class="graph-node" tabindex="-1" r="18.734993995195197" fill="#9467bd" stroke="#fff" stroke-width="2" cx="247.83154565230777" cy="345.14041338685416"/><circle class="graph-node" tabindex="-1" r="15.874507866387544" fill="#8c564b" stroke="#fff" stroke-width="2" cx="137.56121210799435" cy="454.6024146741712"/><circle class="graph-node" tabindex="-1" r="12" fill="#e377c2" stroke="#fff" stroke-width="2" cx="113.84809178720329" cy="692.0063803638726"/><circle class="graph-node" tabindex="-1" r="24.73863375370596" fill="#7f7f7f" stroke="#fff" stroke-width="2" cx="191.80940954477808" cy="519.9365742331548"/><circle class="graph-node" tabindex="-1" r="10.392304845413264" fill="#bcbd22" stroke="#fff" stroke-width="2" cx="-47.61312711346857" cy="623.8751592840869"/><circle class="graph-node" tabindex="-1" r="10.816653826391967" fill="#17becf" stroke="#fff" stroke-width="2" cx="-94.46674852448777" cy="534.3588843225044"/><circle class="graph-node" tabindex="-1" r="18.734993995195197" fill="#1f77b4" stroke="#fff" stroke-width="2" cx="-50.41130834000847" cy="194.28236540960626"/><circle class="graph-node" tabindex="-1" r="11.618950038622252" fill="#ff7f0e" stroke="#fff" stroke-width="2" cx="75.87909032655332" cy="52.4435634746557"/><circle class="graph-node" tabindex="-1" r="9.9498743710662" fill="#2ca02c" stroke="#fff" stroke-width="2" cx="334.8736111575076" cy="576.7932673650528"/><circle class="graph-node" tabindex="-1" r="16.970562748477143" fill="#d62728" stroke="#fff" stroke-width="2" cx="301.22734420672367" cy="253.97162753695034"/><circle class="graph-node" tabindex="-1" r="21.213203435596427" fill="#9467bd" stroke="#fff" stroke-width="2" cx="422.45543553592245" cy="164.3463069062633"/><circle class="graph-node" tabindex="-1" r="12.36931687685298" fill="#8c564b" stroke="#fff" stroke-width="2" cx="-20.90593836005079" cy="33.357443039175315"/><circle class="graph-node" tabindex="-1" r="16.970562748477143" fill="#e377c2" stroke="#fff" stroke-width="2" cx="52.07470987195328" cy="622.0753594912547"/><circle class="graph-node" tabindex="-1" r="10.392304845413264" fill="#7f7f7f" stroke="#fff" stroke-width="2" cx="0.9783707016151924" cy="535.9252339448961"/><circle class="graph-node" tabindex="-1" r="11.618950038622252" fill="#bcbd22" stroke="#fff" stroke-width="2" cx="211.66768600416145" cy="685.9878690818985"/><circle class="graph-node" tabindex="-1" r="9.9498743710662" fill="#17becf" stroke="#fff" stroke-width="2" cx="45.01264301680899" cy="-39.93157383523682"/><circle class="graph-node" tabindex="-1" r="12.36931687685298" fill="#1f77b4" stroke="#fff" stroke-width="2" cx="78.04622845525897" cy="298.46874614981596"/><circle class="graph-node" tabindex="-1" r="13.74772708486752" fill="#ff7f0e" stroke="#fff" stroke-width="2" cx="-147.0228665620059" cy="183.11114497857574"/><circle class="graph-node" tabindex="-1" r="20.346989949375804" fill="#2ca02c" stroke="#fff" stroke-width="2" cx="245.25576307961967" cy="598.2799547735057"/><circle class="graph-node" tabindex="-1" r="14.071247279470288" fill="#d62728" stroke="#fff" stroke-width="2" cx="410.4814477889517" cy="660.4523213488843"/><circle class="graph-node" tabindex="-1" r="13.076696830622023" fill="#9467bd" stroke="#fff" stroke-width="2" cx="109.0921897449996" cy="143.72816214437054"/><circle class="graph-node" tabindex="-1" r="12" fill="#8c564b" stroke="#fff" stroke-width="2" cx="361.2292683334978" cy="494.80547556402416"/><circle class="graph-node" tabindex="-1" r="9.9498743710662" fill="#e377c2" stroke="#fff" stroke-width="2" cx="461.13363229665384" cy="499.17511137089184"/><circle class="graph-node" tabindex="-1" r="16.15549442140351" fill="#7f7f7f" stroke="#fff" stroke-width="2" cx="14.391397661770792" cy="697.2558020195977"/><circle class="graph-node" tabindex="-1" r="12.36931687685298" fill="#bcbd22" stroke="#fff" stroke-width="2" cx="-36.95267942519058" cy="452.7921453143664"/><circle class="graph-node" tabindex="-1" r="10.392304845413264" fill="#17becf" stroke="#fff" stroke-width="2" cx="310.48426748184113" cy="666.0966985363635"/><circle class="graph-node" tabindex="-1" r="16.15549442140351" fill="#1f77b4" stroke="#fff" stroke-width="2" cx="-15.990675447028785" cy="285.39698927037756"/><circle class="graph-node" tabindex="-1" r="12.727922061357855" fill="#ff7f0e" stroke="#fff" stroke-width="2" cx="42.548960068862186" cy="209.48307443475468"/><circle class="graph-node" tabindex="-1" r="16.703293088490064" fill="#2ca02c" stroke="#fff" stroke-width="2" cx="171.83250646905293" cy="76.00236157566101"/><circle class="graph-node" tabindex="-1" r="16.703293088490064" fill="#d62728" stroke="#fff" stroke-width="2" cx="345.5056001528684" cy="339.8258217507753"/><circle class="graph-node" tabindex="-1" r="16.15549442140351" fill="#9467bd" stroke="#fff" stroke-width="2" cx="106.95151512544898" cy="383.76571908594804"/><circle class="graph-node" tabindex="-1" r="12.36931687685298" fill="#8c564b" stroke="#fff" stroke-width="2" cx="-115.35659297934846" cy="270.3091407799618"/><circle class="graph-node" tabindex="-1" r="18.734993995195197" fill="#e377c2" stroke="#fff" stroke-width="2" cx="97.52125651731676" cy="532.780696776063"/><circle class="graph-node" tabindex="-1" r="11.618950038622252" fill="#7f7f7f" stroke="#fff" stroke-width="2" cx="376.31178976226494" cy="-81.72335862809324"/><circle class="graph-node" tabindex="-1" r="12" fill="#bcbd22" stroke="#fff" stroke-width="2" cx="-83.34819026832989" cy="107.90426243311073"/><circle class="graph-node" tabindex="-1" r="11.224972160321824" fill="#17becf" stroke="#fff" stroke-width="2" cx="-138.40138906481343" cy="446.6707667098834"/><circle class="graph-node" tabindex="-1" r="11.618950038622252" fill="#1f77b4" stroke="#fff" stroke-width="2" cx="469.3411385774683" cy="78.70275707049954"/><circle class="graph-node" tabindex="-1" r="11.618950038622252" fill="#ff7f0e" stroke="#fff" stroke-width="2" cx="709.814335069606" cy="159.685300430604"/><circle class="graph-node" tabindex="-1" r="9.9498743710662" fill="#2ca02c" stroke="#fff" stroke-width="2" cx="661.0322446793252" cy="74.13123054014841"/><circle class="graph-node" tabindex="-1" r="16.15549442140351" fill="#d62728" stroke="#fff" stroke-width="2" cx="535.826042008881" cy="325.0495816015441"/><circle class="graph-node" tabindex="-1" r="11.224972160321824" fill="#9467bd" stroke="#fff" stroke-width="2" cx="611.2253221671981" cy="-10.98186535923368"/><circle class="graph-node" tabindex="-1" r="15" fill="#8c564b" stroke="#fff" stroke-width="2" cx="435.8313615461862" cy="326.0712896262321"/><circle class="graph-node" tabindex="-1" r="9.9498743710662" fill="#e377c2" stroke="#fff" stroke-width="2" cx="757.262524958047" cy="245.5281487828608"/><circle class="graph-node" tabindex="-1" r="12" fill="#7f7f7f" stroke="#fff" stroke-width="2" cx="705.4294882725937" cy="328.1401523203871"/><circle class="graph-node" tabindex="-1" r="19.44222209522358" fill="#bcbd22" stroke="#fff" stroke-width="2" cx="590.2770044610245" cy="586.6341584639434"/><circle class="graph-node" tabindex="-1" r="11.224972160321824" fill="#17becf" stroke="#fff" stroke-width="2" cx="-76.69846849590505" cy="365.0121965137129"/><circle class="graph-node" tabindex="-1" r="9.9498743710662" fill="#1f77b4" stroke="#fff" stroke-width="2" cx="371.7548903871779" cy="751.6040491515497"/><circle class="graph-node" tabindex="-1" r="15.874507866387544" fill="#ff7f0e" stroke="#fff" stroke-width="2" cx="149.24334101421687" cy="618.3658814330058"/><circle class="graph-node" tabindex="-1" r="9.9498743710662" fill="#2ca02c" stroke="#fff" stroke-width="2" cx="511.2258310688646" cy="-10.805029868713211"/><circle class="graph-node" tabindex="-1" r="15.297058540778353" fill="#d62728" stroke="#fff" stroke-width="2" cx="659.9617988135858" cy="417.03472741681793"/><circle class="graph-node" tabindex="-1" r="9.9498743710662" fill="#9467bd" stroke="#fff" stroke-width="2" cx="234.85946371326918" cy="-1.4259003498639307"/><circle class="graph-node" tabindex="-1" r="14.071247279470288" fill="#8c564b" stroke="#fff" stroke-width="2" cx="187.99230931208444" cy="-89.76293078838741"/><circle class="graph-node" tabindex="-1" r="11.224972160321824" fill="#e377c2" stroke="#fff" stroke-width="2" cx="803.320296200952" cy="338.02144945225194"/><circle class="graph-node" tabindex="-1" r="9.9498743710662" fill="#7f7f7f" stroke="#fff" stroke-width="2" cx="759.2258103444813" cy="427.77464384252244"/><circle class="graph-node" tabindex="-1" r="10.816653826391967" fill="#bcbd22" stroke="#fff" stroke-width="2" cx="691.4668031584638" cy="590.902033141396"/><circle class="graph-node" tabindex="-1" r="9.9498743710662" fill="#17becf" stroke="#fff" stroke-width="2" cx="-175.89578608261294" cy="352.3673485930887"/><circle class="graph-node" tabindex="-1" r="12" fill="#1f77b4" stroke="#fff" stroke-width="2" cx="240.1905146198197" cy="851.3900221500609"/><circle class="graph-node" tabindex="-1" r="11.224972160321824" fill="#ff7f0e" stroke="#fff" stroke-width="2" cx="80.59170001124632" cy="770.3239152205507"/><circle class="graph-node" tabindex="-1" r="10.392304845413264" fill="#2ca02c" stroke="#fff" stroke-width="2" cx="275.7872665484447" cy="756.8481724753224"/><circle class="graph-node" tabindex="-1" r="9.486832980505138" fill="#d62728" stroke="#fff" stroke-width="2" cx="178.55446936056555" cy="765.6886177180079"/><circle class="graph-node" tabindex="-1" r="9.486832980505138" fill="#9467bd" stroke="#fff" stroke-width="2" cx="41.621939022730324" cy="863.0083553151567"/><circle class="graph-node" tabindex="-1" r="9.486832980505138" fill="#8c564b" stroke="#fff" stroke-width="2" cx="-25.28416664349173" cy="789.3619821782181"/><circle class="graph-node" tabindex="-1" r="10.816653826391967" fill="#e377c2" stroke="#fff" stroke-width="2" cx="140.891632479209" cy="857.9706365256051"/><circle class="graph-node" tabindex="-1" r="9.486832980505138" fill="#7f7f7f" stroke="#fff" stroke-width="2" cx="-142.33238781544645" cy="614.1538524364669"/><circle class="graph-node" tabindex="-1" r="11.618950038622252" fill="#bcbd22" stroke="#fff" stroke-width="2" cx="630.4283960001624" cy="679.3622733372778"/><circle class="graph-node" tabindex="-1" r="11.618950038622252" fill="#17becf" stroke="#fff" stroke-width="2" cx="561.4583968590667" cy="761.7113588942636"/></g><g><text font-size="10px" dx="12" dy="4" x="281.6991207112753" y="-86.25016632034242">Cardi B</text><text font-size="10px" dx="12" dy="4" x="322.14478841915263" y="1.7357131670981623">Megan Thee Stallion</text><text font-size="10px" dx="12" dy="4" x="615.2745833320989" y="156.51589075079494">Myke Towers</text><text font-size="10px" dx="12" dy="4" x="325.30224166850877" y="170.44540573265428">DJ Khaled</text><text font-size="10px" dx="12" dy="4" x="136.87550127640267" y="-12.60553110496937">Summer Walker</text><text font-size="10px" dx="12" dy="4" x="226.0772742826261" y="252.1558725896941">Lil Durk</text><text font-size="10px" dx="12" dy="4" x="414.1915078191025" y="572.863137367123">Beyonce</text><text font-size="10px" dx="12" dy="4" x="209.13670744827195" y="423.4676941965119">Young Thug</text><text font-size="10px" dx="12" dy="4" x="13.262115939680005" y="124.83754204321981">DaBaby</text><text font-size="10px" dx="12" dy="4" x="275.05582911247524" y="90.46276166979698">SZA</text><text font-size="10px" dx="12" dy="4" x="211.49430707786794" y="166.6635292963346">Lil Baby</text><text font-size="10px" dx="12" dy="4" x="297.3420190389283" y="417.3789426733637">Post Malone</text><text font-size="10px" dx="12" dy="4" x="521.6819679652464" y="159.45073204752197">Ozuna</text><text font-size="10px" dx="12" dy="4" x="366.7693280622017" y="85.2293047598514">Dua Lipa</text><text font-size="10px" dx="12" dy="4" x="16.840874145180397" y="369.9981868815278">Future</text><text font-size="10px" dx="12" dy="4" x="414.4962441356099" y="2.8680434796094487">benny blanco</text><text font-size="10px" dx="12" dy="4" x="549.4465060569994" y="499.57915423898305">Maluma</text><text font-size="10px" dx="12" dy="4" x="661.3356401010398" y="238.71468184569127">Justin Quiles</text><text font-size="10px" dx="12" dy="4" x="564.7025676044782" y="79.81880603062561">Sech</text><text font-size="10px" dx="12" dy="4" x="480.98526813971785" y="243.02447888321507">Feid</text><text font-size="10px" dx="12" dy="4" x="572.4602378176232" y="236.22461986244554">J Balvin</text><text font-size="10px" dx="12" dy="4" x="620.3391664283452" y="322.7324167659412">Nicky Jam</text><text font-size="10px" dx="12" dy="4" x="531.3368020448995" y="669.1189609088357">Adassa</text><text font-size="10px" dx="12" dy="4" x="496.22762647946104" y="580.0031008242283">Encanto Cast</text><text font-size="10px" dx="12" dy="4" x="468.32318658773323" y="743.6413213663184">Stephanie Beatriz</text><text font-size="10px" dx="12" dy="4" x="391.9011623237567" y="414.7648849874643">Nicki Minaj</text><text font-size="10px" dx="12" dy="4" x="574.4989423496237" y="416.1628895826286">Karol G</text><text font-size="10px" dx="12" dy="4" x="482.9087414378263" y="409.79271160838493">Ryan Castro</text><text font-size="10px" dx="12" dy="4" x="641.7741788653445" y="506.1931170668149">Blessd</text><text font-size="10px" dx="12" dy="4" x="169.65298201722868" y="317.7392585382472">Drake</text><text font-size="10px" dx="12" dy="4" x="393.67559378232164" y="243.86383201073613">Chris Brown</text><text font-size="10px" dx="12" dy="4" x="144.89012584672082" y="231.14213628088922">Metro Boomin</text><text font-size="10px" dx="12" dy="4" x="271.7632759762493" y="497.3970991646126">21 Savage</text><text font-size="10px" dx="12" dy="4" x="43.48285853935794" y="454.39683892589636">Rick Ross</text><text font-size="10px" dx="12" dy="4" x="247.83154565230777" y="345.14041338685416">Gunna</text><text font-size="10px" dx="12" dy="4" x="137.56121210799435" y="454.6024146741712">Lil Wayne</text><text font-size="10px" dx="12" dy="4" x="113.84809178720329" y="692.0063803638726">Trippie Redd</text><text font-size="10px" dx="12" dy="4" x="191.80940954477808" y="519.9365742331548">Travis Scott</text><text font-size="10px" dx="12" dy="4" x="-47.61312711346857" y="623.8751592840869">JAY-Z</text><text font-size="10px" dx="12" dy="4" x="-94.46674852448777" y="534.3588843225044">Kid Cudi</text><text font-size="10px" dx="12" dy="4" x="-50.41130834000847" y="194.28236540960626">Ty Dolla $ign</text><text font-size="10px" dx="12" dy="4" x="75.87909032655332" y="52.4435634746557">Jack Harlow</text><text font-size="10px" dx="12" dy="4" x="334.8736111575076" y="576.7932673650528">Central Cee</text><text font-size="10px" dx="12" dy="4" x="301.22734420672367" y="253.97162753695034">J. Cole</text><text font-size="10px" dx="12" dy="4" x="422.45543553592245" y="164.3463069062633">Bad Bunny</text><text font-size="10px" dx="12" dy="4" x="-20.90593836005079" y="33.357443039175315">PARTYNEXTDOOR</text><text font-size="10px" dx="12" dy="4" x="52.07470987195328" y="622.0753594912547">Polo G</text><text font-size="10px" dx="12" dy="4" x="0.9783707016151924" y="535.9252339448961">Rod Wave</text><text font-size="10px" dx="12" dy="4" x="211.66768600416145" y="685.9878690818985">The Kid LAROI</text><text font-size="10px" dx="12" dy="4" x="45.01264301680899" y="-39.93157383523682">Morgan Wallen</text><text font-size="10px" dx="12" dy="4" x="78.04622845525897" y="298.46874614981596">Roddy Ricch</text><text font-size="10px" dx="12" dy="4" x="-147.0228665620059" y="183.11114497857574">$: Ye</text><text font-size="10px" dx="12" dy="4" x="245.25576307961967" y="598.2799547735057">The Weeknd</text><text font-size="10px" dx="12" dy="4" x="410.4814477889517" y="660.4523213488843">Juice WRLD</text><text font-size="10px" dx="12" dy="4" x="109.0921897449996" y="143.72816214437054">Ariana Grande</text><text font-size="10px" dx="12" dy="4" x="361.2292683334978" y="494.80547556402416">Doja Cat</text><text font-size="10px" dx="12" dy="4" x="461.13363229665384" y="499.17511137089184">Rosalia</text><text font-size="10px" dx="12" dy="4" x="14.391397661770792" y="697.2558020195977">Tyler, The Creator</text><text font-size="10px" dx="12" dy="4" x="-36.95267942519058" y="452.7921453143664">Playboi Carti</text><text font-size="10px" dx="12" dy="4" x="310.48426748184113" y="666.0966985363635">Swae Lee</text><text font-size="10px" dx="12" dy="4" x="-15.990675447028785" y="285.39698927037756">Pop Smoke</text><text font-size="10px" dx="12" dy="4" x="42.548960068862186" y="209.48307443475468">Kodak Black</text><text font-size="10px" dx="12" dy="4" x="171.83250646905293" y="76.00236157566101">Kendrick Lamar</text><text font-size="10px" dx="12" dy="4" x="345.5056001528684" y="339.8258217507753">Justin Bieber</text><text font-size="10px" dx="12" dy="4" x="106.95151512544898" y="383.76571908594804">Eminem</text><text font-size="10px" dx="12" dy="4" x="-115.35659297934846" y="270.3091407799618">Kanye West</text><text font-size="10px" dx="12" dy="4" x="97.52125651731676" y="532.780696776063">Don Toliver</text><text font-size="10px" dx="12" dy="4" x="376.31178976226494" y="-81.72335862809324">Ed Sheeran</text><text font-size="10px" dx="12" dy="4" x="-83.34819026832989" y="107.90426243311073">Fivio Foreign</text><text font-size="10px" dx="12" dy="4" x="-138.40138906481343" y="446.6707667098834">Pusha T</text><text font-size="10px" dx="12" dy="4" x="469.3411385774683" y="78.70275707049954">Daddy Yankee</text><text font-size="10px" dx="12" dy="4" x="709.814335069606" y="159.685300430604">Arcangel</text><text font-size="10px" dx="12" dy="4" x="661.0322446793252" y="74.13123054014841">Mora</text><text font-size="10px" dx="12" dy="4" x="535.826042008881" y="325.0495816015441">Anuel AA</text><text font-size="10px" dx="12" dy="4" x="611.2253221671981" y="-10.98186535923368">Tainy</text><text font-size="10px" dx="12" dy="4" x="435.8313615461862" y="326.0712896262321">Rauw Alejandro</text><text font-size="10px" dx="12" dy="4" x="757.262524958047" y="245.5281487828608">Maria Becerra</text><text font-size="10px" dx="12" dy="4" x="705.4294882725937" y="328.1401523203871">Quevedo</text><text font-size="10px" dx="12" dy="4" x="590.2770044610245" y="586.6341584639434">Peso Pluma</text><text font-size="10px" dx="12" dy="4" x="-76.69846849590505" y="365.0121965137129">Pharrell Williams</text><text font-size="10px" dx="12" dy="4" x="371.7548903871779" y="751.6040491515497">Internet Money</text><text font-size="10px" dx="12" dy="4" x="149.24334101421687" y="618.3658814330058">Lil Uzi Vert</text><text font-size="10px" dx="12" dy="4" x="511.2258310688646" y="-10.805029868713211">Marshmello</text><text font-size="10px" dx="12" dy="4" x="659.9617988135858" y="417.03472741681793">Bizarrap</text><text font-size="10px" dx="12" dy="4" x="234.85946371326918" y="-1.4259003498639307">Burna Boy</text><text font-size="10px" dx="12" dy="4" x="187.99230931208444" y="-89.76293078838741">Taylor Swift</text><text font-size="10px" dx="12" dy="4" x="803.320296200952" y="338.02144945225194">Duki</text><text font-size="10px" dx="12" dy="4" x="759.2258103444813" y="427.77464384252244">Tiago pzk</text><text font-size="10px" dx="12" dy="4" x="691.4668031584638" y="590.902033141396">Natanael Cano</text><text font-size="10px" dx="12" dy="4" x="-175.89578608261294" y="352.3673485930887">David Guetta</text><text font-size="10px" dx="12" dy="4" x="240.1905146198197" y="851.3900221500609">MC Davi</text><text font-size="10px" dx="12" dy="4" x="80.59170001124632" y="770.3239152205507">MC Ryan SP</text><text font-size="10px" dx="12" dy="4" x="275.7872665484447" y="756.8481724753224">MC Don Juan</text><text font-size="10px" dx="12" dy="4" x="178.55446936056555" y="765.6886177180079">MC PH</text><text font-size="10px" dx="12" dy="4" x="41.621939022730324" y="863.0083553151567">MC GH Do7</text><text font-size="10px" dx="12" dy="4" x="-25.28416664349173" y="789.3619821782181">Traplaudo</text><text font-size="10px" dx="12" dy="4" x="140.891632479209" y="857.9706365256051">MC GP</text><text font-size="10px" dx="12" dy="4" x="-142.33238781544645" y="614.1538524364669">Silk Sonic (Bruno Mars</text><text font-size="10px" dx="12" dy="4" x="630.4283960001624" y="679.3622733372778">Junior H</text><text font-size="10px" dx="12" dy="4" x="561.4583968590667" y="761.7113588942636">Gabito Ballesteros</text></g></g></svg>